<?xml version="1.0" encoding="UTF-8"?>
<svg id="Laag_1" data-name="Laag 1" xmlns="http://www.w3.org/2000/svg" xmlns:xlink="http://www.w3.org/1999/xlink" viewBox="0 0 394.99 180.72">
  <defs>
    <style>
      .cls-1 {
        clip-path: url(#clippath-73);
      }

      .cls-2 {
        clip-path: url(#clippath-72);
      }

      .cls-3 {
        clip-path: url(#clippath-62);
      }

      .cls-4 {
        clip-path: url(#clippath-63);
      }

      .cls-5 {
        clip-path: url(#clippath-20);
      }

      .cls-6 {
        clip-path: url(#clippath-11);
      }

      .cls-7 {
        clip-path: url(#clippath-16);
      }

      .cls-8 {
        clip-path: url(#clippath-59);
      }

      .cls-9 {
        clip-path: url(#clippath-78);
      }

      .cls-10 {
        clip-path: url(#clippath-89);
      }

      .cls-11 {
        clip-path: url(#clippath-33);
      }

      .cls-12 {
        clip-path: url(#clippath-64);
      }

      .cls-13 {
        clip-path: url(#clippath-47);
      }

      .cls-14 {
        clip-path: url(#clippath-77);
      }

      .cls-15 {
        clip-path: url(#clippath-41);
      }

      .cls-16 {
        clip-path: url(#clippath-32);
      }

      .cls-17 {
        clip-path: url(#clippath-87);
      }

      .cls-18 {
        letter-spacing: -.12em;
      }

      .cls-19 {
        clip-path: url(#clippath-83);
      }

      .cls-20 {
        clip-path: url(#clippath-2);
      }

      .cls-21 {
        clip-path: url(#clippath-13);
      }

      .cls-22 {
        clip-path: url(#clippath-88);
      }

      .cls-23 {
        clip-path: url(#clippath-37);
      }

      .cls-24 {
        fill: #e5e5e5;
      }

      .cls-24, .cls-25, .cls-26, .cls-27 {
        stroke-width: 0px;
      }

      .cls-28 {
        clip-path: url(#clippath-46);
      }

      .cls-29 {
        clip-path: url(#clippath-25);
      }

      .cls-30 {
        clip-path: url(#clippath-15);
      }

      .cls-31 {
        clip-path: url(#clippath-6);
      }

      .cls-32 {
        font-family: Arial-BoldMT, Arial;
        font-weight: 700;
      }

      .cls-32, .cls-33, .cls-34 {
        font-size: 12px;
      }

      .cls-35 {
        clip-path: url(#clippath-76);
      }

      .cls-36 {
        clip-path: url(#clippath-40);
      }

      .cls-37 {
        clip-path: url(#clippath-26);
      }

      .cls-38 {
        clip-path: url(#clippath-81);
      }

      .cls-39 {
        letter-spacing: -.04em;
      }

      .cls-40 {
        clip-path: url(#clippath-75);
      }

      .cls-25, .cls-41 {
        fill: none;
      }

      .cls-33 {
        font-family: ArialMT, Arial;
      }

      .cls-42 {
        clip-path: url(#clippath-7);
      }

      .cls-43 {
        clip-path: url(#clippath-21);
      }

      .cls-44 {
        clip-path: url(#clippath-34);
      }

      .cls-45 {
        clip-path: url(#clippath-57);
      }

      .cls-46 {
        clip-path: url(#clippath-1);
      }

      .cls-47 {
        clip-path: url(#clippath-4);
      }

      .cls-48 {
        clip-path: url(#clippath-38);
      }

      .cls-49 {
        clip-path: url(#clippath-36);
      }

      .cls-50 {
        clip-path: url(#clippath-27);
      }

      .cls-51 {
        letter-spacing: -.08em;
      }

      .cls-52 {
        clip-path: url(#clippath-60);
      }

      .cls-53 {
        clip-path: url(#clippath-44);
      }

      .cls-26 {
        fill: #ccc;
      }

      .cls-54 {
        letter-spacing: .01em;
      }

      .cls-55 {
        clip-path: url(#clippath-12);
      }

      .cls-56 {
        clip-path: url(#clippath-80);
      }

      .cls-57 {
        clip-path: url(#clippath-24);
      }

      .cls-58 {
        clip-path: url(#clippath-30);
      }

      .cls-59 {
        clip-path: url(#clippath-79);
      }

      .cls-60 {
        clip-path: url(#clippath-22);
      }

      .cls-61 {
        letter-spacing: -.03em;
      }

      .cls-62 {
        clip-path: url(#clippath-9);
      }

      .cls-63 {
        clip-path: url(#clippath-82);
      }

      .cls-64 {
        clip-path: url(#clippath-52);
      }

      .cls-65 {
        clip-path: url(#clippath);
      }

      .cls-66 {
        clip-path: url(#clippath-50);
      }

      .cls-67 {
        clip-path: url(#clippath-48);
      }

      .cls-68 {
        clip-path: url(#clippath-61);
      }

      .cls-69 {
        clip-path: url(#clippath-39);
      }

      .cls-70 {
        clip-path: url(#clippath-19);
      }

      .cls-71 {
        clip-path: url(#clippath-31);
      }

      .cls-72 {
        clip-path: url(#clippath-86);
      }

      .cls-73 {
        clip-path: url(#clippath-54);
      }

      .cls-74 {
        clip-path: url(#clippath-3);
      }

      .cls-41 {
        stroke: #fff;
        stroke-linecap: round;
        stroke-linejoin: round;
        stroke-width: 1.13px;
      }

      .cls-75 {
        clip-path: url(#clippath-43);
      }

      .cls-76 {
        clip-path: url(#clippath-70);
      }

      .cls-77 {
        clip-path: url(#clippath-8);
      }

      .cls-78 {
        clip-path: url(#clippath-55);
      }

      .cls-79 {
        clip-path: url(#clippath-69);
      }

      .cls-80 {
        clip-path: url(#clippath-29);
      }

      .cls-81 {
        clip-path: url(#clippath-18);
      }

      .cls-82 {
        letter-spacing: .01em;
      }

      .cls-83 {
        clip-path: url(#clippath-14);
      }

      .cls-84 {
        clip-path: url(#clippath-17);
      }

      .cls-85 {
        clip-path: url(#clippath-5);
      }

      .cls-86 {
        clip-path: url(#clippath-58);
      }

      .cls-87 {
        clip-path: url(#clippath-84);
      }

      .cls-88 {
        clip-path: url(#clippath-42);
      }

      .cls-34 {
        font-family: Arial-ItalicMT, Arial;
        font-style: italic;
      }

      .cls-89 {
        clip-path: url(#clippath-65);
      }

      .cls-90 {
        clip-path: url(#clippath-10);
      }

      .cls-91 {
        clip-path: url(#clippath-23);
      }

      .cls-92 {
        clip-path: url(#clippath-74);
      }

      .cls-93 {
        clip-path: url(#clippath-56);
      }

      .cls-94 {
        clip-path: url(#clippath-53);
      }

      .cls-95 {
        clip-path: url(#clippath-49);
      }

      .cls-96 {
        letter-spacing: -.02em;
      }

      .cls-97 {
        clip-path: url(#clippath-67);
      }

      .cls-98 {
        clip-path: url(#clippath-51);
      }

      .cls-27 {
        fill: #f2f2f2;
      }

      .cls-99 {
        clip-path: url(#clippath-28);
      }

      .cls-100 {
        clip-path: url(#clippath-71);
      }

      .cls-101 {
        clip-path: url(#clippath-85);
      }

      .cls-102 {
        clip-path: url(#clippath-68);
      }

      .cls-103 {
        clip-path: url(#clippath-35);
      }

      .cls-104 {
        clip-path: url(#clippath-66);
      }
    </style>
    <clipPath id="clippath">
      <rect class="cls-25" x=".56" y=".56" width="89.7" height="19.95"/>
    </clipPath>
    <clipPath id="clippath-1">
      <rect class="cls-25" x=".56" y="20.53" width="89.7" height="19.95"/>
    </clipPath>
    <clipPath id="clippath-2">
      <rect class="cls-25" x=".56" y="40.48" width="89.7" height="19.95"/>
    </clipPath>
    <clipPath id="clippath-3">
      <rect class="cls-25" x=".56" y="60.44" width="89.7" height="19.95"/>
    </clipPath>
    <clipPath id="clippath-4">
      <rect class="cls-25" x=".56" y="80.39" width="89.7" height="19.95"/>
    </clipPath>
    <clipPath id="clippath-5">
      <rect class="cls-25" x=".56" y="100.35" width="89.7" height="19.95"/>
    </clipPath>
    <clipPath id="clippath-6">
      <rect class="cls-25" x=".56" y="120.3" width="89.7" height="19.95"/>
    </clipPath>
    <clipPath id="clippath-7">
      <rect class="cls-25" x=".56" y="140.26" width="89.7" height="19.95"/>
    </clipPath>
    <clipPath id="clippath-8">
      <rect class="cls-25" x=".56" y="160.21" width="89.7" height="19.95"/>
    </clipPath>
    <clipPath id="clippath-9">
      <rect class="cls-25" x="90.26" y=".56" width="76.04" height="19.95"/>
    </clipPath>
    <clipPath id="clippath-10">
      <rect class="cls-25" x="166.3" y=".56" width="69.37" height="19.95"/>
    </clipPath>
    <clipPath id="clippath-11">
      <rect class="cls-25" x="235.67" y=".56" width="76.04" height="19.95"/>
    </clipPath>
    <clipPath id="clippath-12">
      <rect class="cls-25" x="311.71" y=".56" width="82.71" height="19.95"/>
    </clipPath>
    <clipPath id="clippath-13">
      <rect class="cls-25" x="90.26" y="20.53" width="76.04" height="19.95"/>
    </clipPath>
    <clipPath id="clippath-14">
      <rect class="cls-25" x="90.26" y="40.48" width="76.04" height="19.95"/>
    </clipPath>
    <clipPath id="clippath-15">
      <rect class="cls-25" x="90.26" y="60.44" width="76.04" height="19.95"/>
    </clipPath>
    <clipPath id="clippath-16">
      <rect class="cls-25" x="90.26" y="80.39" width="76.04" height="19.95"/>
    </clipPath>
    <clipPath id="clippath-17">
      <rect class="cls-25" x="90.26" y="100.35" width="76.04" height="19.95"/>
    </clipPath>
    <clipPath id="clippath-18">
      <rect class="cls-25" x="90.26" y="120.3" width="76.04" height="19.95"/>
    </clipPath>
    <clipPath id="clippath-19">
      <rect class="cls-25" x="90.26" y="140.26" width="76.04" height="19.95"/>
    </clipPath>
    <clipPath id="clippath-20">
      <rect class="cls-25" x="90.26" y="160.21" width="76.04" height="19.95"/>
    </clipPath>
    <clipPath id="clippath-21">
      <rect class="cls-25" x="166.3" y="20.53" width="69.37" height="19.95"/>
    </clipPath>
    <clipPath id="clippath-22">
      <rect class="cls-25" x="166.3" y="40.48" width="69.37" height="19.95"/>
    </clipPath>
    <clipPath id="clippath-23">
      <rect class="cls-25" x="166.3" y="60.44" width="69.37" height="19.95"/>
    </clipPath>
    <clipPath id="clippath-24">
      <rect class="cls-25" x="166.3" y="80.39" width="69.37" height="19.95"/>
    </clipPath>
    <clipPath id="clippath-25">
      <rect class="cls-25" x="166.3" y="100.35" width="69.37" height="19.95"/>
    </clipPath>
    <clipPath id="clippath-26">
      <rect class="cls-25" x="166.3" y="120.3" width="69.37" height="19.95"/>
    </clipPath>
    <clipPath id="clippath-27">
      <rect class="cls-25" x="166.3" y="140.26" width="69.37" height="19.95"/>
    </clipPath>
    <clipPath id="clippath-28">
      <rect class="cls-25" x="166.3" y="160.21" width="69.37" height="19.95"/>
    </clipPath>
    <clipPath id="clippath-29">
      <rect class="cls-25" x="235.67" y="20.53" width="76.04" height="19.95"/>
    </clipPath>
    <clipPath id="clippath-30">
      <rect class="cls-25" x="235.67" y="40.48" width="76.04" height="19.95"/>
    </clipPath>
    <clipPath id="clippath-31">
      <rect class="cls-25" x="235.67" y="60.44" width="76.04" height="19.95"/>
    </clipPath>
    <clipPath id="clippath-32">
      <rect class="cls-25" x="235.67" y="80.39" width="76.04" height="19.95"/>
    </clipPath>
    <clipPath id="clippath-33">
      <rect class="cls-25" x="235.67" y="100.35" width="76.04" height="19.95"/>
    </clipPath>
    <clipPath id="clippath-34">
      <rect class="cls-25" x="235.67" y="120.3" width="76.04" height="19.95"/>
    </clipPath>
    <clipPath id="clippath-35">
      <rect class="cls-25" x="235.67" y="140.26" width="76.04" height="19.95"/>
    </clipPath>
    <clipPath id="clippath-36">
      <rect class="cls-25" x="235.67" y="160.21" width="76.04" height="19.95"/>
    </clipPath>
    <clipPath id="clippath-37">
      <rect class="cls-25" x="311.71" y="20.53" width="82.71" height="19.95"/>
    </clipPath>
    <clipPath id="clippath-38">
      <rect class="cls-25" x="311.71" y="40.48" width="82.71" height="19.95"/>
    </clipPath>
    <clipPath id="clippath-39">
      <rect class="cls-25" x="311.71" y="60.44" width="82.71" height="19.95"/>
    </clipPath>
    <clipPath id="clippath-40">
      <rect class="cls-25" x="311.71" y="80.39" width="82.71" height="19.95"/>
    </clipPath>
    <clipPath id="clippath-41">
      <rect class="cls-25" x="311.71" y="100.35" width="82.71" height="19.95"/>
    </clipPath>
    <clipPath id="clippath-42">
      <rect class="cls-25" x="311.71" y="120.3" width="82.71" height="19.95"/>
    </clipPath>
    <clipPath id="clippath-43">
      <rect class="cls-25" x="311.71" y="140.26" width="82.71" height="19.95"/>
    </clipPath>
    <clipPath id="clippath-44">
      <rect class="cls-25" x="311.71" y="160.21" width="82.71" height="19.95"/>
    </clipPath>
    <clipPath id="clippath-46">
      <rect class="cls-25" x="90.26" y=".56" width="76.04" height="19.95"/>
    </clipPath>
    <clipPath id="clippath-47">
      <rect class="cls-25" x="90.26" y="20.53" width="76.04" height="19.95"/>
    </clipPath>
    <clipPath id="clippath-48">
      <rect class="cls-25" x=".56" y="20.53" width="89.7" height="19.95"/>
    </clipPath>
    <clipPath id="clippath-49">
      <rect class="cls-25" x="166.3" y=".56" width="69.37" height="19.95"/>
    </clipPath>
    <clipPath id="clippath-50">
      <rect class="cls-25" x="90.26" y="40.48" width="76.04" height="19.95"/>
    </clipPath>
    <clipPath id="clippath-51">
      <rect class="cls-25" x=".56" y="40.48" width="89.7" height="19.95"/>
    </clipPath>
    <clipPath id="clippath-52">
      <rect class="cls-25" x="235.67" y=".56" width="76.04" height="19.95"/>
    </clipPath>
    <clipPath id="clippath-53">
      <rect class="cls-25" x="90.26" y="60.44" width="76.04" height="19.95"/>
    </clipPath>
    <clipPath id="clippath-54">
      <rect class="cls-25" x=".56" y="60.44" width="89.7" height="19.95"/>
    </clipPath>
    <clipPath id="clippath-55">
      <rect class="cls-25" x="311.71" y=".56" width="82.71" height="19.95"/>
    </clipPath>
    <clipPath id="clippath-56">
      <rect class="cls-25" x="90.26" y="80.39" width="76.04" height="19.95"/>
    </clipPath>
    <clipPath id="clippath-57">
      <rect class="cls-25" x=".56" y="80.39" width="89.7" height="19.95"/>
    </clipPath>
    <clipPath id="clippath-58">
      <rect class="cls-25" x="90.26" y="100.35" width="76.04" height="19.95"/>
    </clipPath>
    <clipPath id="clippath-59">
      <rect class="cls-25" x=".56" y="100.35" width="89.7" height="19.95"/>
    </clipPath>
    <clipPath id="clippath-60">
      <rect class="cls-25" x="90.26" y="120.3" width="76.04" height="19.95"/>
    </clipPath>
    <clipPath id="clippath-61">
      <rect class="cls-25" x=".56" y="120.3" width="89.7" height="19.95"/>
    </clipPath>
    <clipPath id="clippath-62">
      <rect class="cls-25" x="90.26" y="140.26" width="76.04" height="19.95"/>
    </clipPath>
    <clipPath id="clippath-63">
      <rect class="cls-25" x=".56" y="140.26" width="89.7" height="19.95"/>
    </clipPath>
    <clipPath id="clippath-64">
      <rect class="cls-25" x="90.26" y="160.21" width="76.04" height="19.95"/>
    </clipPath>
    <clipPath id="clippath-65">
      <rect class="cls-25" x=".56" y="160.21" width="89.7" height="19.95"/>
    </clipPath>
    <clipPath id="clippath-66">
      <rect class="cls-25" x="166.3" y="20.53" width="69.37" height="19.95"/>
    </clipPath>
    <clipPath id="clippath-67">
      <rect class="cls-25" x="166.3" y="40.48" width="69.37" height="19.95"/>
    </clipPath>
    <clipPath id="clippath-68">
      <rect class="cls-25" x="166.3" y="60.44" width="69.37" height="19.95"/>
    </clipPath>
    <clipPath id="clippath-69">
      <rect class="cls-25" x="166.3" y="80.39" width="69.37" height="19.95"/>
    </clipPath>
    <clipPath id="clippath-70">
      <rect class="cls-25" x="166.3" y="100.35" width="69.37" height="19.95"/>
    </clipPath>
    <clipPath id="clippath-71">
      <rect class="cls-25" x="166.3" y="120.3" width="69.37" height="19.95"/>
    </clipPath>
    <clipPath id="clippath-72">
      <rect class="cls-25" x="166.3" y="140.26" width="69.37" height="19.95"/>
    </clipPath>
    <clipPath id="clippath-73">
      <rect class="cls-25" x="166.3" y="160.21" width="69.37" height="19.95"/>
    </clipPath>
    <clipPath id="clippath-74">
      <rect class="cls-25" x="235.67" y="20.53" width="76.04" height="19.95"/>
    </clipPath>
    <clipPath id="clippath-75">
      <rect class="cls-25" x="235.67" y="40.48" width="76.04" height="19.95"/>
    </clipPath>
    <clipPath id="clippath-76">
      <rect class="cls-25" x="235.67" y="60.44" width="76.04" height="19.95"/>
    </clipPath>
    <clipPath id="clippath-77">
      <rect class="cls-25" x="235.67" y="80.39" width="76.04" height="19.95"/>
    </clipPath>
    <clipPath id="clippath-78">
      <rect class="cls-25" x="235.67" y="100.35" width="76.04" height="19.95"/>
    </clipPath>
    <clipPath id="clippath-79">
      <rect class="cls-25" x="235.67" y="120.3" width="76.04" height="19.95"/>
    </clipPath>
    <clipPath id="clippath-80">
      <rect class="cls-25" x="235.67" y="140.26" width="76.04" height="19.95"/>
    </clipPath>
    <clipPath id="clippath-81">
      <rect class="cls-25" x="235.67" y="160.21" width="76.04" height="19.95"/>
    </clipPath>
    <clipPath id="clippath-82">
      <rect class="cls-25" x="311.71" y="20.53" width="82.71" height="19.95"/>
    </clipPath>
    <clipPath id="clippath-83">
      <rect class="cls-25" x="311.71" y="40.48" width="82.71" height="19.95"/>
    </clipPath>
    <clipPath id="clippath-84">
      <rect class="cls-25" x="311.71" y="60.44" width="82.71" height="19.95"/>
    </clipPath>
    <clipPath id="clippath-85">
      <rect class="cls-25" x="311.71" y="80.39" width="82.71" height="19.95"/>
    </clipPath>
    <clipPath id="clippath-86">
      <rect class="cls-25" x="311.71" y="100.35" width="82.71" height="19.95"/>
    </clipPath>
    <clipPath id="clippath-87">
      <rect class="cls-25" x="311.71" y="120.3" width="82.71" height="19.95"/>
    </clipPath>
    <clipPath id="clippath-88">
      <rect class="cls-25" x="311.71" y="140.26" width="82.71" height="19.95"/>
    </clipPath>
    <clipPath id="clippath-89">
      <rect class="cls-25" x="311.71" y="160.21" width="82.71" height="19.95"/>
    </clipPath>
  </defs>
  <g class="cls-65">
    <rect class="cls-41" x=".56" y=".56" width="89.7" height="19.95"/>
  </g>
  <g class="cls-46">
    <rect class="cls-41" x=".56" y="20.53" width="89.7" height="19.95"/>
  </g>
  <g class="cls-20">
    <rect class="cls-41" x=".56" y="40.48" width="89.7" height="19.95"/>
  </g>
  <g class="cls-74">
    <rect class="cls-41" x=".56" y="60.44" width="89.7" height="19.95"/>
  </g>
  <g class="cls-47">
    <rect class="cls-41" x=".56" y="80.39" width="89.7" height="19.95"/>
  </g>
  <g class="cls-85">
    <rect class="cls-41" x=".56" y="100.35" width="89.7" height="19.95"/>
  </g>
  <g class="cls-31">
    <rect class="cls-41" x=".56" y="120.3" width="89.7" height="19.95"/>
  </g>
  <g class="cls-42">
    <rect class="cls-41" x=".56" y="140.26" width="89.7" height="19.95"/>
  </g>
  <g class="cls-77">
    <rect class="cls-41" x=".56" y="160.21" width="89.7" height="19.95"/>
  </g>
  <g class="cls-62">
    <rect class="cls-26" x="90.26" y=".56" width="76.04" height="19.95"/>
    <rect class="cls-41" x="90.26" y=".56" width="76.04" height="19.95"/>
  </g>
  <g class="cls-90">
    <rect class="cls-26" x="166.3" y=".56" width="69.37" height="19.95"/>
    <rect class="cls-41" x="166.3" y=".56" width="69.37" height="19.95"/>
  </g>
  <g class="cls-6">
    <rect class="cls-26" x="235.67" y=".56" width="76.04" height="19.95"/>
    <rect class="cls-41" x="235.67" y=".56" width="76.04" height="19.95"/>
  </g>
  <g class="cls-55">
    <rect class="cls-26" x="311.71" y=".56" width="82.71" height="19.95"/>
    <rect class="cls-41" x="311.71" y=".56" width="82.71" height="19.95"/>
  </g>
  <g class="cls-21">
    <rect class="cls-27" x="90.26" y="20.53" width="76.04" height="19.95"/>
    <rect class="cls-41" x="90.26" y="20.53" width="76.04" height="19.95"/>
  </g>
  <g class="cls-83">
    <rect class="cls-24" x="90.26" y="40.48" width="76.04" height="19.95"/>
    <rect class="cls-41" x="90.26" y="40.48" width="76.04" height="19.95"/>
  </g>
  <g class="cls-30">
    <rect class="cls-27" x="90.26" y="60.44" width="76.04" height="19.95"/>
    <rect class="cls-41" x="90.26" y="60.44" width="76.04" height="19.95"/>
  </g>
  <g class="cls-7">
    <rect class="cls-24" x="90.26" y="80.39" width="76.04" height="19.95"/>
    <rect class="cls-41" x="90.26" y="80.39" width="76.04" height="19.95"/>
  </g>
  <g class="cls-84">
    <rect class="cls-27" x="90.26" y="100.35" width="76.04" height="19.95"/>
    <rect class="cls-41" x="90.26" y="100.35" width="76.04" height="19.95"/>
  </g>
  <g class="cls-81">
    <rect class="cls-24" x="90.26" y="120.3" width="76.04" height="19.95"/>
    <rect class="cls-41" x="90.26" y="120.3" width="76.04" height="19.95"/>
  </g>
  <g class="cls-70">
    <rect class="cls-27" x="90.26" y="140.26" width="76.04" height="19.95"/>
    <rect class="cls-41" x="90.26" y="140.26" width="76.04" height="19.95"/>
  </g>
  <g class="cls-5">
    <rect class="cls-24" x="90.26" y="160.21" width="76.04" height="19.95"/>
    <rect class="cls-41" x="90.26" y="160.21" width="76.04" height="19.95"/>
  </g>
  <g class="cls-43">
    <rect class="cls-27" x="166.3" y="20.53" width="69.37" height="19.95"/>
    <rect class="cls-41" x="166.3" y="20.53" width="69.37" height="19.95"/>
  </g>
  <g class="cls-60">
    <rect class="cls-24" x="166.3" y="40.48" width="69.37" height="19.95"/>
    <rect class="cls-41" x="166.3" y="40.48" width="69.37" height="19.95"/>
  </g>
  <g class="cls-91">
    <rect class="cls-27" x="166.3" y="60.44" width="69.37" height="19.95"/>
    <rect class="cls-41" x="166.3" y="60.44" width="69.37" height="19.95"/>
  </g>
  <g class="cls-57">
    <rect class="cls-24" x="166.3" y="80.39" width="69.37" height="19.95"/>
    <rect class="cls-41" x="166.3" y="80.39" width="69.37" height="19.95"/>
  </g>
  <g class="cls-29">
    <rect class="cls-27" x="166.3" y="100.35" width="69.37" height="19.95"/>
    <rect class="cls-41" x="166.3" y="100.35" width="69.37" height="19.95"/>
  </g>
  <g class="cls-37">
    <rect class="cls-24" x="166.3" y="120.3" width="69.37" height="19.95"/>
    <rect class="cls-41" x="166.3" y="120.3" width="69.37" height="19.95"/>
  </g>
  <g class="cls-50">
    <rect class="cls-27" x="166.3" y="140.26" width="69.37" height="19.95"/>
    <rect class="cls-41" x="166.3" y="140.26" width="69.37" height="19.95"/>
  </g>
  <g class="cls-99">
    <rect class="cls-24" x="166.3" y="160.21" width="69.37" height="19.95"/>
    <rect class="cls-41" x="166.3" y="160.21" width="69.37" height="19.95"/>
  </g>
  <g class="cls-80">
    <rect class="cls-27" x="235.67" y="20.53" width="76.04" height="19.95"/>
    <rect class="cls-41" x="235.67" y="20.53" width="76.04" height="19.95"/>
  </g>
  <g class="cls-58">
    <rect class="cls-24" x="235.67" y="40.48" width="76.04" height="19.95"/>
    <rect class="cls-41" x="235.67" y="40.48" width="76.04" height="19.95"/>
  </g>
  <g class="cls-71">
    <rect class="cls-27" x="235.67" y="60.44" width="76.04" height="19.95"/>
    <rect class="cls-41" x="235.67" y="60.44" width="76.04" height="19.95"/>
  </g>
  <g class="cls-16">
    <rect class="cls-24" x="235.67" y="80.39" width="76.04" height="19.95"/>
    <rect class="cls-41" x="235.67" y="80.39" width="76.04" height="19.95"/>
  </g>
  <g class="cls-11">
    <rect class="cls-27" x="235.67" y="100.35" width="76.04" height="19.95"/>
    <rect class="cls-41" x="235.67" y="100.35" width="76.04" height="19.95"/>
  </g>
  <g class="cls-44">
    <rect class="cls-24" x="235.67" y="120.3" width="76.04" height="19.95"/>
    <rect class="cls-41" x="235.67" y="120.3" width="76.04" height="19.95"/>
  </g>
  <g class="cls-103">
    <rect class="cls-27" x="235.67" y="140.26" width="76.04" height="19.95"/>
    <rect class="cls-41" x="235.67" y="140.26" width="76.04" height="19.95"/>
  </g>
  <g class="cls-49">
    <rect class="cls-24" x="235.67" y="160.21" width="76.04" height="19.95"/>
    <rect class="cls-41" x="235.67" y="160.21" width="76.04" height="19.95"/>
  </g>
  <g class="cls-23">
    <rect class="cls-27" x="311.71" y="20.53" width="82.71" height="19.95"/>
    <rect class="cls-41" x="311.71" y="20.53" width="82.71" height="19.95"/>
  </g>
  <g class="cls-48">
    <rect class="cls-24" x="311.71" y="40.48" width="82.71" height="19.95"/>
    <rect class="cls-41" x="311.71" y="40.48" width="82.71" height="19.95"/>
  </g>
  <g class="cls-69">
    <rect class="cls-27" x="311.71" y="60.44" width="82.71" height="19.95"/>
    <rect class="cls-41" x="311.71" y="60.44" width="82.71" height="19.95"/>
  </g>
  <g class="cls-36">
    <rect class="cls-24" x="311.71" y="80.39" width="82.71" height="19.95"/>
    <rect class="cls-41" x="311.71" y="80.39" width="82.71" height="19.95"/>
  </g>
  <g class="cls-15">
    <rect class="cls-27" x="311.71" y="100.35" width="82.71" height="19.95"/>
    <rect class="cls-41" x="311.71" y="100.35" width="82.71" height="19.95"/>
  </g>
  <g class="cls-88">
    <rect class="cls-24" x="311.71" y="120.3" width="82.71" height="19.95"/>
    <rect class="cls-41" x="311.71" y="120.3" width="82.71" height="19.95"/>
  </g>
  <g class="cls-75">
    <rect class="cls-27" x="311.71" y="140.26" width="82.71" height="19.95"/>
    <rect class="cls-41" x="311.71" y="140.26" width="82.71" height="19.95"/>
  </g>
  <g class="cls-53">
    <rect class="cls-24" x="311.71" y="160.21" width="82.71" height="19.95"/>
    <rect class="cls-41" x="311.71" y="160.21" width="82.71" height="19.95"/>
  </g>
  <g class="cls-28">
    <text class="cls-32" transform="translate(100.27 14.84)"><tspan x="0" y="0">Individual</tspan></text>
  </g>
  <g class="cls-13">
    <text class="cls-33" transform="translate(102.6 34.8)"><tspan x="0" y="0">1920 (72)</tspan></text>
  </g>
  <g class="cls-67">
    <text class="cls-34" transform="translate(54.92 34.8)"><tspan x="0" y="0">Ae</tspan><tspan class="cls-54" x="14.68" y="0">r</tspan><tspan x="18.84" y="0">ial</tspan></text>
  </g>
  <g class="cls-95">
    <text class="cls-32" transform="translate(183.12 14.84)"><tspan x="0" y="0">G</tspan><tspan class="cls-96" x="9.33" y="0">r</tspan><tspan x="13.76" y="0">oup</tspan></text>
  </g>
  <g class="cls-66">
    <text class="cls-33" transform="translate(102.6 54.76)"><tspan x="0" y="0">2204 (30)</tspan></text>
  </g>
  <g class="cls-98">
    <text class="cls-34" transform="translate(45.75 54.76)"><tspan x="0" y="0">Aquatic</tspan></text>
  </g>
  <g class="cls-64">
    <text class="cls-32" transform="translate(242.93 14.84)"><tspan class="cls-39" x="0" y="0">P</tspan><tspan x="7.52" y="0">opulation</tspan></text>
  </g>
  <g class="cls-94">
    <text class="cls-33" transform="translate(102.6 74.71)"><tspan x="0" y="0">1093 (16)</tspan></text>
  </g>
  <g class="cls-73">
    <text class="cls-34" transform="translate(12.75 74.71)"><tspan x="0" y="0">Semi−aquatic</tspan></text>
  </g>
  <g class="cls-78">
    <text class="cls-32" transform="translate(339.22 14.84)"><tspan class="cls-51" x="0" y="0">T</tspan><tspan x="6.38" y="0">otal</tspan></text>
  </g>
  <g class="cls-93">
    <text class="cls-33" transform="translate(99.27 94.66)"><tspan x="0" y="0">5587 (128)</tspan></text>
  </g>
  <g class="cls-45">
    <text class="cls-34" transform="translate(40.44 94.66)"><tspan x="0" y="0">Arboreal</tspan></text>
  </g>
  <g class="cls-86">
    <text class="cls-33" transform="translate(102.6 114.62)"><tspan x="0" y="0">2776 (29)</tspan></text>
  </g>
  <g class="cls-8">
    <text class="cls-34" transform="translate(7.42 114.62)"><tspan x="0" y="0">Semi−arboreal</tspan></text>
  </g>
  <g class="cls-52">
    <text class="cls-33" transform="translate(95.94 134.57)"><tspan x="0" y="0">46458 (318)</tspan></text>
  </g>
  <g class="cls-68">
    <text class="cls-34" transform="translate(33.04 134.57)"><tspan class="cls-18" x="0" y="0">T</tspan><tspan x="5.9" y="0">errest</tspan><tspan class="cls-82" x="36.58" y="0">r</tspan><tspan x="40.74" y="0">ial</tspan></text>
  </g>
  <g class="cls-3">
    <text class="cls-33" transform="translate(102.6 154.53)"><tspan x="0" y="0">1365 (30)</tspan></text>
  </g>
  <g class="cls-4">
    <text class="cls-34" transform="translate(37.29 154.53)"><tspan class="cls-61" x="0" y="0">F</tspan><tspan x="6.98" y="0">osso</tspan><tspan class="cls-54" x="32.33" y="0">r</tspan><tspan x="36.49" y="0">ial</tspan></text>
  </g>
  <g class="cls-12">
    <text class="cls-33" transform="translate(95.94 174.49)"><tspan x="0" y="0">61403 (623)</tspan></text>
  </g>
  <g class="cls-89">
    <text class="cls-34" transform="translate(72.44 174.49)"><tspan x="0" y="0">All</tspan></text>
  </g>
  <g class="cls-104">
    <text class="cls-33" transform="translate(178.65 34.8)"><tspan x="0" y="0">119 (20)</tspan></text>
  </g>
  <g class="cls-97">
    <text class="cls-33" transform="translate(178.65 54.76)"><tspan x="0" y="0">141 (13)</tspan></text>
  </g>
  <g class="cls-102">
    <text class="cls-33" transform="translate(185.31 74.71)"><tspan x="0" y="0">48 (3)</tspan></text>
  </g>
  <g class="cls-79">
    <text class="cls-33" transform="translate(171.98 94.66)"><tspan x="0" y="0">2865 (131)</tspan></text>
  </g>
  <g class="cls-76">
    <text class="cls-33" transform="translate(175.31 114.62)"><tspan x="0" y="0">2045 (38)</tspan></text>
  </g>
  <g class="cls-100">
    <text class="cls-33" transform="translate(175.31 134.57)"><tspan x="0" y="0">2748 (66)</tspan></text>
  </g>
  <g class="cls-2">
    <text class="cls-33" transform="translate(185.31 154.53)"><tspan x="0" y="0">74 (5)</tspan></text>
  </g>
  <g class="cls-1">
    <text class="cls-33" transform="translate(171.98 174.49)"><tspan x="0" y="0">8040 (276)</tspan></text>
  </g>
  <g class="cls-92">
    <text class="cls-33" transform="translate(251.36 34.8)"><tspan x="0" y="0">547 (74)</tspan></text>
  </g>
  <g class="cls-40">
    <text class="cls-33" transform="translate(251.36 54.76)"><tspan x="0" y="0">441 (29)</tspan></text>
  </g>
  <g class="cls-35">
    <text class="cls-33" transform="translate(251.36 74.71)"><tspan x="0" y="0">605 (19)</tspan></text>
  </g>
  <g class="cls-14">
    <text class="cls-33" transform="translate(244.68 94.66)"><tspan x="0" y="0">2959 (152)</tspan></text>
  </g>
  <g class="cls-9">
    <text class="cls-33" transform="translate(251.36 114.62)"><tspan x="0" y="0">870 (29)</tspan></text>
  </g>
  <g class="cls-59">
    <text class="cls-33" transform="translate(241.34 134.57)"><tspan x="0" y="0">16833 (395)</tspan></text>
  </g>
  <g class="cls-56">
    <text class="cls-33" transform="translate(251.36 154.53)"><tspan x="0" y="0">616 (47)</tspan></text>
  </g>
  <g class="cls-38">
    <text class="cls-33" transform="translate(241.34 174.49)"><tspan x="0" y="0">22871 (745)</tspan></text>
  </g>
  <g class="cls-63">
    <text class="cls-33" transform="translate(327.39 34.8)"><tspan x="0" y="0">2586 (95)</tspan></text>
  </g>
  <g class="cls-19">
    <text class="cls-33" transform="translate(327.39 54.76)"><tspan x="0" y="0">2786 (38)</tspan></text>
  </g>
  <g class="cls-87">
    <text class="cls-33" transform="translate(327.39 74.71)"><tspan x="0" y="0">1746 (19)</tspan></text>
  </g>
  <g class="cls-101">
    <text class="cls-33" transform="translate(320.72 94.66)"><tspan x="0" y="0">11411 (283)</tspan></text>
  </g>
  <g class="cls-72">
    <text class="cls-33" transform="translate(327.39 114.62)"><tspan x="0" y="0">5691 (65)</tspan></text>
  </g>
  <g class="cls-17">
    <text class="cls-33" transform="translate(320.72 134.57)"><tspan x="0" y="0">66039 (453)</tspan></text>
  </g>
  <g class="cls-22">
    <text class="cls-33" transform="translate(327.39 154.53)"><tspan x="0" y="0">2055 (48)</tspan></text>
  </g>
  <g class="cls-10">
    <text class="cls-33" transform="translate(317.38 174.49)"><tspan x="0" y="0">92314 (1001)</tspan></text>
  </g>
</svg>