<?xml version="1.0" encoding="UTF-8" standalone="no"?>
<!-- Created with Inkscape (http://www.inkscape.org/) -->

<svg
   version="1.1"
   width="1025.2852"
   height="558.2677"
   viewBox="0 0 1025.2852 558.2677"
   id="Layer_1"
   xml:space="preserve"
   xmlns="http://www.w3.org/2000/svg"
   xmlns:svg="http://www.w3.org/2000/svg"><defs
   id="defs37" />
    
    <g
   id="g3">
        
        <g
   id="g5">
            
            <path
   d="m 731,286 c 0.4,0 0.601,0 1,0 6.601,0 13.4,0.2 20,0.5 v 0.5 c 5.8,0.6 11.101,1.5 16,2.9 0.4,0.1 0.601,0.1 1,0.1 39.5,20.2 71.101,48.4 95,84.4 5.9,8.9 12,17.6 18.5,26 6.4,8.3 11.5,17.9 15.5,28.6 -15.7,27.9 -36.899,50.6 -63.2,68.2 -1.8,1.2 -3.8,2.5 -5.8,3.8 -2.1,6.3 -2.5,12.6 -1.1,19 0.1,0.4 0.1,0.7 0.1,1 5,-0.3 8.8,-1.8 11.3,-4.7 0.2,-0.1 0.301,-0.3 0.7,-0.3 5,0.4 10,0.8 15,1 0.4,0 0.601,0 1,0 13,6 29.4,8.4 49.101,7 7.399,-0.5 12,-3.1 13.899,-8 1.5,-1 3.4,0.8 5.8,5.2 0.2,0.2 0.2,0.5 0.2,0.8 27,7.3 52.9,16.2 77.4,26.5 4.6,1.9 8.1,5.1 10.6,9.5 0.4,0 0.7,0 1,0 0.4,0 0.7,0 1,0 0,-0.3 0,-0.6 0,-1 4.9,-4 7.8,-10.4 8.5,-18.9 0,-0.1 0.2,-0.1 0.5,-0.1 0,-0.3 0,-0.6 0,-1 0,-4 0,-8 0,-12 -2.7,-11.6 -6.6,-22 -11.7,-31.2 -5.1,-9.2 -11.8,-16.8 -19.899,-22.8 -16.601,-12.3 -33.4,-24.2 -50.3,-35.7 C 933,429.1 926.601,420.4 923,409 c 1.101,-1.5 1.5,-3.8 1,-7 0,-0.3 0,-0.6 0,-1 0,-0.3 0,-0.6 0,-1 0,-8.6 0,-17.3 0,-26 -0.3,-10.3 -1.399,-19.7 -3.3,-28.1 -2.1,-9 -5.1,-17 -9.2,-23.9 C 895,294.1 878.601,266.1 862.3,237.9 854,223.7 844.2,211.2 833,200.1 802.8,170.6 771,142.7 737.5,116.4 704.2,90.2 665.9,68.6 622.5,51.7 601.3,43.5 579,35.8 555.5,28.4 510.601,14.3 460.9,4.9 406,0 c -0.399,0 -0.6,0 -1,0 -16.6,0 -33.399,0 -50,0 -3.1,1.2 -7.1,2 -11.899,2.5 C 290,8.2 238.3,15.7 188,25 c -5.6,2.2 -11.2,4.2 -17,6 -16.6,5.5 -33.9,10.2 -52,14 -5.6,2.4 -11,4.9 -16.3,7.4 -3.6,1.6 -6.9,3.5 -9.8,5.8 -9.1,7 -19.6,12.7 -31.3,17 -22,8 -39.2,20.7 -51.8,38 -3.1,4.3 -4.6,10 -4.5,16.8 0.2,11.7 2,23.7 5.7,36 0,0.4 -0.1,0.7 -0.2,0.9 C 6.3,174 2.7,182.1 0,191 c 0,1 0,2 0,3 0,0.4 0,0.7 0,1 1.1,7.3 5.1,11.6 12,12.9 0.4,0.1 0.7,0.1 1,0.1 4.4,0 8.6,0 13,0 0.4,0 0.6,0 1,0 17.6,-2.8 35.3,-2.8 53,-0.1 0.3,0.1 0.7,0.1 1,0.1 4,0 8,0 12,0 0.3,0 0.7,0 1,0 11.4,-0.6 22.8,-1.2 34,-1.9 0.3,-0.1 0.7,-0.1 1,-0.1 27,11.7 47.9,29.5 62.8,53.6 0.1,0.3 0.4,0.6 0.8,0.9 1.2,1 2.4,2.2 3.4,3.5 14.4,3.6 27.6,3.1 39.4,-1.3 0.6,-0.3 1.4,-0.5 2.6,-0.7 0.6,-8 -1.6,-14.9 -6.3,-20.7 -0.1,-0.1 -0.3,-0.2 -0.5,-0.3 13.6,0.7 27.3,2.9 40.9,6.9 0.3,0.1 0.5,0.1 0.9,0.1 6.4,14.3 15.1,26.2 25.9,36 11,9.8 26.7,14.8 47.1,15 4.9,-2.1 8.101,-5.8 9.9,-11 0,-0.3 0.1,-0.6 0.1,-1 0,-0.3 0,-0.6 0,-1 0,-4.3 0,-8.6 0,-13 0.4,0 0.601,0 1,0 0,-0.3 0,-0.6 0,-1 0,-0.3 0,-0.6 0,-0.9 0,-2.1 0,-4.1 0,-6.1 7.601,0 15.4,0.2 23,0.5 v 0.5 c 7,0 14,0.2 21,0.5 v 0.5 c 17.3,0.8 33.3,2.7 48.101,5.9 14.8,3.2 30.8,5.3 47.899,6.1 6.601,0 13.4,0 20,0 0.4,0 0.601,0 1,0 0,-0.3 0,-0.6 0,-1 6,0 12,0 18,0 0.4,0 0.601,0 1,0 11.9,-0.1 23.5,-0.5 35,-1 0.4,0 0.601,0 1,0 0,-0.3 0,-0.6 0,-1 5,0 10,0 15,0 0.4,0 0.601,0 1,0 0.4,0 0.601,0 1,0 0,-0.3 0,-0.6 0,-1 5,0 10,0 15,0 0.4,0 0.601,0 1,0 16.101,-0.1 30.3,1.6 42.3,5.2 4.601,1.5 9.801,2 15.7,1.8 0,-0.3 0,-0.6 0,-1 3.601,0 7.4,0 11,0 0.4,0 0.601,0 1,0 8.601,0 16.3,-1 23,-2.8 0.4,-0.1 0.601,-0.2 1,-0.2 7.601,5.4 18,8.1 31,8 z"
   id="path7" />
            
            <path
   d="m 752,287 v -0.5 c -6.6,-0.3 -13.399,-0.5 -20,-0.5 5.5,1.2 11.9,1.5 19,1.1 0.4,-0.1 0.601,-0.1 1,-0.1 z"
   id="path9"
   style="fill:#525254" />
            
            <path
   d="m 664,281 c 0,0.4 0,0.7 0,1 4,0 8,-0.1 12,-0.5 0,0 0,-0.1 0,-0.5 -0.399,0 -0.6,0 -1,0 -3.6,0 -7.399,0 -11,0 z"
   id="path11"
   style="fill:#4a4a4b" />
            
            <path
   d="m 924,400 c 0,0.4 0,0.7 0,1 0.4,0 0.5,0 0.5,0 0.9,-9.8 0.601,-18.8 -0.5,-27 0,8.7 0,17.4 0,26 z"
   id="path13"
   style="fill:#535353" />
            
            <path
   d="m 1024,538 c -0.3,0 -0.5,0 -0.5,0.1 -0.7,8.5 -3.6,14.9 -8.5,18.9 0,0.4 0,0.7 0,1 8.4,1.4 11.601,-2.7 9.8,-12.1 -0.5,-2.5 -0.8,-5.2 -0.8,-7.9 z"
   id="path15"
   style="fill:#0d0d0d" />
            
            <path
   d="m 357,265 c 0,2 0,4 0,6.1 0.4,-4.1 3,-5.9 8.101,-5.6 C 370,265.9 375,266 380,266 v -0.5 c -7.6,-0.3 -15.399,-0.5 -23,-0.5 z"
   id="path17"
   style="fill:#4d4d4e" />
            
            <path
   d="m 357,273 c -0.399,0 -0.6,0 -1,0 0,4.4 0,8.7 0,13 0,0.4 0,0.7 0,1 1.101,-3.5 1.5,-7.8 1.101,-13 C 357,273.7 357,273.4 357,273 Z"
   id="path19"
   style="fill:#535355" />
            
            <path
   d="m 401,267 v -0.5 c -7,-0.3 -14,-0.5 -21,-0.5 5.9,1.2 12.5,1.5 20,1.1 0.4,-0.1 0.601,-0.1 1,-0.1 z"
   id="path21"
   style="fill:#4a494a" />
            
            <path
   d="m 573,276 c 0,0.4 0,0.7 0,1 5.4,0 10.601,-0.1 16,-0.5 0,0 0,-0.1 0,-0.5 -0.399,0 -0.6,0 -1,0 -5,0 -10,0 -15,0 z"
   id="path23"
   style="fill:#4b4a4b" />
            
            <path
   d="m 606,275 c -0.399,0 -0.6,0 -1,0 -5,0 -10,0 -15,0 0,0.4 0,0.7 0,1 5.4,0 10.601,-0.1 16,-0.5 0,0 0,-0.1 0,-0.5 z"
   id="path25"
   style="fill:#515152" />
            
            <path
   d="m 518,278 c 0,0.4 0,0.7 0,1 6.4,0 12.601,-0.1 19,-0.5 0,0 0,-0.1 0,-0.5 -0.399,0 -0.6,0 -1,0 -6,0 -12,0 -18,0 z"
   id="path27"
   style="fill:#4d4d4e" />
            
            <path
   d="m 518,279.5 c 0,0 0,-0.1 0,-0.5 -0.399,0 -0.6,0 -1,0 -6.6,0 -13.399,0 -20,0 6.101,1.2 13.101,1.4 21,0.5 z"
   id="path29"
   style="fill:#545456" />
            
            <path
   d="m 94,208 c -0.3,0 -0.7,0 -1,0 -4,0 -8,0 -12,0 3.5,1.2 7.8,1.4 12.9,0.5 0.1,0 0.1,-0.1 0.1,-0.5 z"
   id="path31"
   style="fill:#343434" />
            
            <path
   d="m 26.9,208.5 c 0.1,0 0.1,-0.1 0.1,-0.5 -0.4,0 -0.6,0 -1,0 -4.4,0 -8.6,0 -13,0 3.9,1.2 8.5,1.4 13.9,0.5 z"
   id="path33"
   style="fill:#555556" />
            
        </g>
        
    </g>
    
</svg>
