<?xml version="1.0" encoding="UTF-8" standalone="no"?>
<!-- Created with Inkscape (http://www.inkscape.org/) -->

<svg
   version="1.1"
   width="2488.0149"
   height="1603"
   viewBox="0 0 2488.0149 1603"
   id="Layer_1"
   xml:space="preserve"
   xmlns="http://www.w3.org/2000/svg"
   xmlns:svg="http://www.w3.org/2000/svg"><defs
   id="defs329" />
    
    <g
   id="g3">
        
        <g
   id="g5">
            
            <path
   d="m 1669,0 c 4.333,0 8.667,0 13,0 25.887,1.779 51.849,3.485 76,7 4.393,6.162 17.2,5.448 27,7 17.062,2.702 36.441,9.856 52,18 15.64,8.187 32.378,14.978 46,23 29.271,17.239 55.802,38.868 89,50 8.043,12.957 23.243,18.757 31,32 30.381,28.62 73.074,44.926 94,83 3.865,3.202 8.524,2.44 12,5 5.81,4.278 8.613,12.944 13,18 5.723,6.595 14.374,9.394 22,14 2.722,2.945 4.581,6.752 6,11 2.423,2.244 5.133,4.2 8,6 4.617,16.638 21.64,24.116 31,37 3.869,5.326 3.34,12.34 10,16 2.684,12.316 13.312,16.688 16,29 9.511,8.297 7.177,24.725 19,32 -0.701,4.368 1.701,5.632 1,10 0.967,4.367 5.14,5.527 7,9 -1.016,13.65 8.749,25.024 11,39 1.398,8.682 1.669,17.143 3,24 3.406,17.549 2.695,37.874 4,57 3.322,48.703 8.079,100.441 6,151 -1.952,47.476 1.037,102.041 13,144 2.053,3.28 6.848,3.818 10,6 1.106,2.269 -6.361,-2.52 -9,-3 0.101,3.899 0.688,7.312 3,9 l -0.5,0.5 0.5,0.5 c -0.333,0 -0.667,0 -1,0 -0.424,2.09 0.686,2.648 1,4 l -1.5,0.5 1.5,0.5 c 0.782,4.551 0.558,10.109 3,13 l -0.5,0.5 0.5,0.5 c -2.528,16.532 12.743,23.921 22,32 -0.941,1.12 -5.877,-3.422 -9,-6 -3.596,-2.968 -6.824,-6.449 -10,-8 2.602,7.398 4.394,15.606 6,24 2.275,0.485 5.108,1.984 7,0 2.346,1.14 -3.324,2.581 -6,2 1.334,1.666 4.447,1.553 6,3 0.586,2.081 2.102,3.232 3,5 1.874,1.018 0.109,5.232 0,1 -2.662,-2.338 -3.762,-6.238 -8,-7 -1.564,1.631 1.728,6.89 2,10 2.418,1.915 5.909,2.758 8,5 2.714,0.619 7.937,-1.27 9,1 -3,0 -6,0 -9,0 -2.229,-1.438 -4.62,-2.713 -7,-4 -0.546,12.22 14.104,14.554 18,19 -5.961,-1.373 -9.042,-5.624 -14,-8 -0.923,8.933 9.342,15.318 17,19 -5.301,2.276 -8.826,-5.821 -13,-8 -0.303,4.654 3.168,14.151 13,12 2.755,1.527 -7.445,1.527 -8,0 0.791,5.21 4.75,7.25 5,13 l -2.5,2.5 3.5,-0.5 c 2.085,1.582 4.073,3.26 7,4 l -0.5,1.5 1.5,0.5 c -0.368,1.701 0.78,1.887 2,2 l -0.5,1.5 1.5,0.5 c 1.445,3.264 2.234,2.517 6,2 l -0.5,1.5 1.5,0.5 c -0.282,1.615 0.945,1.722 1,3 l -2,4 4,-2 c 0.962,5.038 7.446,4.554 9,9 l -1,1.333 V 992 c -1.419,-0.086 -2.832,-0.165 -3,1 3.258,1.408 2.256,7.077 5,9 l -1.5,0.5 0.5,1.5 c -3.424,1.844 -7.231,7.659 -2,10 1.396,-2.874 -2.726,-5.08 0,-6 3.694,5.774 -1.804,14.543 3,19 l -0.5,2.5 2.5,-0.5 c 1.457,6.542 0.703,15.297 7,17 l 1.375,3.375 L 2364,1049 c 0.279,2.055 2.671,1.996 4,3 l 1.643,1.714 2.357,0.286 -2,0.25 1,1.75 c 0.013,1.987 2.729,1.271 2,4 l -0.5,1 0.5,1 c -1.44,2.213 -2.44,-1.259 -3,1 2.323,0.677 2.677,3.323 5,4 v 1 1 c 3.284,4.268 0.947,2.76 -1,3 l -3.5,0.5 0.5,3.5 c -0.333,0 -0.667,0 -1,0 l -0.455,-3.637 L 2367,1075 c -2.809,-0.574 -4.645,-7.289 -8,-4 l -2.5,-0.5 -2.5,0.5 c -2.197,-1.136 -3.322,-3.345 -6,-4 l -2,-3.7 -2,3.7 -0.167,-4.944 L 2339,1061 c -2.203,-4.13 -3.596,-9.071 -7,-12 -0.802,3.469 1.489,3.844 1,7 l -3.5,0.5 0.5,3.5 c 0.262,4.405 3.449,5.884 3,11 h -2 v 2 c -3.813,-1.188 -7.342,-2.658 -11,-4 0.791,5.542 7.664,5.003 10,9 -3.183,2.465 -5.061,-4.901 -9,-5 0.599,6.401 5.993,8.007 10,11 1.813,4.938 -2.061,-2.586 -5,-2 0.908,7.425 5.877,10.789 6,19 0.851,-0.184 0.943,0.391 1,1 l -1.5,0.5 1.5,0.5 c 1.589,2.744 1.411,7.255 3,10 l -1.5,0.5 1.5,0.5 c 3.063,10.27 7.602,19.065 13,27 -0.81,-0.19 -0.997,-1.003 -2,-1 12.611,39.503 35.177,74.836 56,108 20.088,31.992 34.041,62.837 40,106 2.164,15.672 3.745,40.434 12,52 8.793,12.32 33.712,34.146 33,62 0,1.333 0,2.667 0,4 -1.725,2.275 -2.139,5.861 -2,10 -18.55,16.107 -34.837,44.054 -68,39 -8.255,4.244 -23.889,3.262 -33,0 -6.038,3.736 -17.085,7.435 -27,4 -4.777,4.443 -21.087,8.719 -25,2 -21.513,9.821 -59.124,3.543 -83,11 -2.928,0.261 -3.072,-2.261 -6,-2 -15.354,2.584 -30.264,4.246 -45,0 -5.527,-7.889 -6.133,-23.472 -4,-36 1.896,-1.771 3.104,-4.229 5,-6 4.838,-16.895 24.589,-25.949 34,-38 9.927,-12.711 21.293,-42.813 23,-68 0.371,-5.469 -0.727,-15.728 -4,-20 1.939,-3.691 1.692,-6.978 1,-12 -7.402,-53.693 -29.178,-111.432 -47,-157 -9.867,-38.818 -30.535,-75.45 -58,-100 -15.953,-20.161 -51.521,-41.467 -75,-55 -27.654,-15.939 -53.774,-34.612 -84,-42 -2.866,-4.906 -12.254,-7.136 -19,-5 -1.02,-1.313 -0.98,-3.687 -2,-5 -16.076,7.925 -28.774,19.693 -43,30 -13.321,9.651 -28.303,22.489 -47,26 -6.191,1.162 -13.506,-0.842 -20,1 -7.519,2.132 -11.809,9.724 -20,13 -6.992,1.072 -13.39,-2.93 -19,0 -4.447,7.109 -11.359,17.074 -7,27 1.773,2.669 -2.57,-2.56 -2,-5 -5.943,3.541 -0.409,12.579 0,16 1.514,12.651 -2.982,-3.174 -3,-9 -5.703,3.867 -5.561,12.103 -2,18 1.208,2.423 -3.063,-5.097 -4,-7 -6.199,5.963 -3.794,11.144 -1,19 -2.173,-2.161 -2.829,-5.838 -4,-9 -4.703,6.951 -10.578,12.271 -8,24 -1.675,2.88 -0.796,-5.109 -1,-7 -7.891,4.756 -4.115,16.47 2,20 -2.695,1.977 -4.945,-5.017 -7,-7 -1.371,3.596 -5.006,12.307 -2,14 2.995,-0.658 -0.956,-2.138 0,-4 1.618,4.382 6.221,5.779 8,10 -3.117,-2.217 -5.912,-4.755 -10,-6 -3.872,4.431 0.777,6.649 1,12 1.773,2.669 -2.57,-2.56 -2,-5 -15.059,44.538 -14.311,105.414 -21,161 -2.519,20.926 1.429,45.895 -3,65 -4.035,17.406 -17.074,32.357 -24,45 -8.127,14.835 -18.684,29.669 -22,46 -2.476,12.192 -0.836,24.494 -3,35 -2.578,12.518 -9.59,28.949 -18,35 -17.072,12.284 -52.794,8.346 -78,4 -10.666,-1.839 -19.885,-5.034 -35,-5 -15.2,-9.8 -36.205,-13.795 -56,-19 -18.689,-15.423 -39.317,-27.646 -60,-48 -10.439,-10.273 -35.779,-39.068 -25,-53 8.467,-10.943 30.602,-20.208 44,-22 28.797,-3.852 45.764,-22.129 65,-40 18.228,-16.935 37.548,-40.175 43,-68 2.723,-13.895 9.643,-28.805 15,-42 5.646,-13.908 14.388,-25.437 20,-37 8.285,-17.07 5.758,-43.557 17,-60 1.018,-16.746 8.163,-34.27 7,-51 -0.638,-9.172 -6.027,-17.243 0,-25 -7.514,-15.153 -0.184,-37.244 -6,-52 -3.034,-0.367 -2.076,3.258 -3,5 -2.459,2.096 0.739,-3.574 0,-6 -2.409,-0.409 -2.174,1.826 -5,1 -2.953,0.869 2.32,1.497 1,4 0.857,3.013 -1.799,-5.628 -6,-4 -2.638,-0.305 -2.579,2.088 -3,4 -1.274,-0.227 -1.311,-2.984 0,-3 -0.125,-2.209 -4.242,-0.425 -6,-1 1.38,5.111 3.951,13.264 5,18 2.549,11.51 -0.312,1.134 -3,-7 -5.348,-4.986 -8.073,-12.593 -20,-11 -1.861,0.655 3.041,2.864 4,4 -2.602,1.557 -5.493,-5.14 -10,-5 -1.764,1.187 2.985,4.281 4,6 -2.688,1.313 -4.229,-7.073 -10,-6 -1.678,1.421 2.021,5.922 2,9 -1.66,1.269 -2.34,-6.95 -4,-9 -2,0 -4,0 -6,0 -1.608,0.402 0.038,5.867 1,7 -5.527,3.824 -4.181,-7.792 -10,-7 -2.009,0.804 1.789,4.116 2,6 0.159,3.67 -3.259,-9.248 -7,-5 -2.712,1.506 1.592,4.314 2,6 -2.675,2.608 -2.137,-6.48 -6,-6 -1.906,0.102 0.797,3.727 1,5 -1.948,2.525 -1.396,-5.87 -5,-5 -2.785,-1.602 -2.766,4.318 -1,4 -2.729,3.623 -1.167,-5.421 -6,-3 -1.335,3.186 0.078,3.186 -3,0 -3.53,7.787 -4.937,20.047 -3,9 0.482,-2.755 -0.992,-5.193 1,-8 -2.675,-1.957 -12.086,-2.124 -10,4 -2.782,-9.682 -9.458,-1.564 -9,0 -1.234,-4.222 0.98,-3.672 -5,-3 -2.365,2.302 -1.729,7.604 -4,10 -1.678,-1.421 2.021,-5.922 2,-9 -1.547,-2.44 -7.557,-0.97 -7,2 0.614,-2.222 -1.896,-3.904 -7,-3 -2.497,0.691 1.855,2.667 1,5 -1.167,-1.5 -2.889,-2.445 -3,-5 -2.667,0 -5.333,0 -8,0 -2.276,2.02 4.619,3.323 4,7 -4.931,-2.736 -5.979,-9.354 -15,-8 -0.692,1.41 3.052,6.91 4,10 -2.908,0.214 -3.318,-10.661 -9,-11 -2.114,2.832 3.264,6.698 3,11 -3.416,-5.917 -6.749,-11.918 -17,-11 -2.364,1.437 6.799,9.335 3,9 -1.783,-3.883 -3.905,-7.428 -7,-10 -1.172,0.161 -0.844,1.823 -1,3 -0.997,-3.67 -6.195,-3.139 -11,-3 0.192,3.474 3.537,3.797 4,7 0.463,2.368 -4.278,-6.022 -7,-7 0.127,1.794 -1.224,2.109 -1,4 -2.487,-0.15 -0.293,-3.387 0,-4 -0.15,-1.85 -3.387,-0.613 -4,-2 -1.274,0.227 -1.311,2.984 0,3 -1.509,-1.516 -9.589,-5.059 -16,-5 -0.916,2.29 4.254,7.049 5,11 -4.057,-2.943 -4.309,-9.691 -9,-12 -2.276,2.02 4.619,3.323 4,7 -2.886,-0.447 -2.364,-4.303 -5,-5 0.532,2.801 1.468,5.199 2,8 -3.889,-2.777 -1.236,-12.098 -8,-12 -2.196,1.303 1.183,5.405 1,8 -2.619,1.574 -0.686,-9.947 -6,-9 -2.28,1.387 -0.373,6.961 -1,10 -2.693,-4.307 -4.98,-9.02 -9,-12 0.711,4.496 1.098,15.327 0,13 -0.166,-5.834 -0.761,-11.239 -3,-15 -3.056,0.723 -3.645,-1.022 -6,-1 0.36,3.94 7.842,10.412 5,11 -3.492,-5.842 -6.333,-12.334 -14,-14 -1.018,2.063 4.695,5.937 7,8 -3.185,0.159 -8.142,-6.506 -12,-9 -2.805,1.599 1.404,4.501 0,8 -0.845,2.801 -0.226,-12.166 -7,-10 l 0.5,-1.5 -1.5,0.5 c -4.739,-0.594 -7.881,-2.786 -12,-4 l 0.5,-1.5 -1.5,0.5 c -1.42,0.086 -2.832,0.165 -3,-1 -2.856,1.241 4.346,2.908 1,5 -2.902,-1.431 -2.843,-5.824 -6,-7 -5,1.178 -2.181,14.429 -5,12 -0.512,-5.845 2.354,-8.313 3,-13 -4.406,-1.406 -2.709,3.291 -3,6 -2.709,2.643 1.515,-10.132 -4,-8 -3.616,3.04 2.057,20.811 -2,15 0,-5 0,-10 0,-15 -0.389,-2.945 -4.712,-1.955 -6,-4 -1.332,1.724 3.523,5.767 5,8 -2.493,1.119 -5.174,-6.129 -8,-8 -2.722,2.146 7.428,15.439 2,11 -2.227,-5.106 -2.849,-11.817 -8,-14 -2.815,1.011 0.276,4.247 0,6 -3.533,-6.812 -5.775,-9.346 -14,-12 -0.461,3.302 4.91,9.721 1,10 -0.677,-5.323 -0.804,-11.196 -6,-12 -2.168,-0.169 -0.453,3.547 -1,5 -1.828,1.437 0.194,-9.484 -5,-8 -1.756,1.277 1.882,9.431 -1,12 -3.347,3.382 2.645,-8.541 -1,-12 -1.666,-2.334 -5.432,-2.568 -8,-4 1.096,3.57 3.43,5.904 7,7 -1.523,2.1 -6.213,-1.054 -6,-4 -2.652,-0.318 0.936,5.602 -3,4 0.044,-4.711 -1.42,-7.913 -4,-10 -2.995,0.658 0.956,2.138 0,4 -2.441,-6.566 -11.981,-10.409 -9,3 -1.588,-2.42 0.438,-15.063 -7,-14 -0.271,0.039 -1.58,1.722 -1,2 -4.614,-2.214 -5.404,-6.452 -9,-7 -3.024,1.514 0.829,4.389 0,7 -1.289,1.866 -2.447,-4.819 -2,-8 -3.008,-1.008 -1.772,2.228 -2,4 -0.972,-8.315 -16.337,-12.968 -23,-16 -0.943,2.032 0.107,5.983 -1,10 -3.416,5.251 -5.469,11.864 -10,16 -4.283,34.383 -31.703,45.63 -50,66 1,0 2,0 3,0 -5.851,1.483 -10.413,4.254 -13,9 l -0.5,-0.5 -0.5,0.5 c -2.422,1.577 -4.422,3.577 -6,6 1.492,5.175 4.598,8.735 6,14 -3.953,-2.713 -4.432,-8.901 -7,-13 -9.605,2.514 -10.541,21.195 2,22 -6.427,0.287 -10.427,-4.282 -17,-7 -1.44,0.56 -2.44,1.56 -3,3 0.941,2.725 5.045,2.289 8,3 -1.046,3.502 -11.132,-5.174 -13,1 0.911,2.422 4.019,2.648 7,3 -4.892,-2.192 -16.439,3.829 0,5 0.447,2.662 -9.216,-0.379 -11,-2 -32.038,31.295 -55.639,71.028 -87,103 0.785,4.118 -1.535,5.132 -1,9 l -1.5,-0.5 0.5,1.5 c -2.956,1.458 -2.552,10.209 -1,13 h -1 v 1 c 0.551,4.832 0.493,8.717 0,15 1.411,-2.589 1.767,-6.233 4,-8 -0.044,-0.679 -2.232,12.039 4,13 2.504,3.982 -5.672,-2.354 -5,-6 -2.092,0.908 -3.049,2.951 -3,6 3.761,0.906 4.223,5.11 9,5 -3.823,2.188 -12.884,16.338 -8,22 3.112,3.608 4.286,-3.133 1,1 -9.299,11.694 6.517,51.494 27,37 9.599,16.148 38.551,2.45 67,1 16.92,-0.862 49.725,2.383 60,10 4.58,14.282 4.023,41.118 -1,58 -7.177,24.119 -11.168,52.758 -19,74 -2.155,5.846 -7.363,12.567 -11,20 -8.86,18.107 -17.566,35.621 -29,52 -8.589,12.305 -31.904,41.986 -46,19 -1.635,-2.665 -4.532,-3.904 -7,-7 -12.976,-16.278 -22.698,-46.9 -35,-63 -5.41,-7.08 -10.683,-12.93 -17,-17 -5.919,8.235 -3.711,29.411 -4,40 25.274,18.807 56.858,37.177 51,85 -0.646,5.271 -3.939,8.456 -4,16 -10.122,9.114 -26.549,8.389 -40,11 -14.464,2.808 -29.076,-0.706 -45,0 -11.177,0.496 -21.855,2.481 -33,3 -22.749,1.059 -50.187,-1.159 -74,2 -11.333,0 -22.667,0 -34,0 -14.679,-2.988 -35.506,0.173 -49,-4 -4.159,-44.164 30.708,-57.351 54,-78 14.696,-13.028 29.553,-37.039 33,-60 -1.281,-2.719 -3.124,-4.876 -4,-8 0.167,-2.833 1.833,-4.167 2,-7 -5.929,-4.867 -6.434,-17.91 -1,-24 -1.381,-6.367 -7.43,-4.741 -10,-11 -4.333,-10.554 2.813,-28.604 -5,-39 -0.093,-20.871 -0.716,-50.013 -4,-73 -2.234,-15.639 -11.971,-25.957 -12,-46 -0.034,-23.596 8.678,-44.278 7,-71 -2.488,-0.154 -3.096,1.571 -5,2 -2.828,1.455 3.367,-2.55 4,-4 -1.705,-13.257 -4.303,-14.578 -5,-27 -1.44,0.56 -2.44,1.56 -3,3 4.282,-4.359 1.105,-16.214 -5,-21 1.099,-1.676 3.195,4.071 5,5 0.535,-3.868 -1.785,-4.882 -1,-9 -1.907,-1.877 -1.81,0.594 -5,0 5.486,-4.409 0.893,-12.507 0,-19 -1.035,-1.929 -3.965,2.622 -5,4 -0.482,-4.179 7.076,-5.833 4,-14 -1.035,-1.929 -3.965,2.622 -5,4 -0.154,-3.511 6.701,-8.615 4,-18 -3.272,-0.908 -6.059,7.252 -8,11 -1.685,-7.033 9.43,-9.893 7,-21 -3.569,0.765 -6.088,2.578 -8,5 -2.492,-3.537 6.813,-3.819 7,-8 0.022,-2.355 -1.723,-2.944 -1,-6 -0.677,-2.188 -3.323,1.895 -4,3 -2.557,-2.949 5.439,-3.852 3,-10 -4.275,-0.275 -5.097,2.902 -7,5 -2.216,-2.607 4.032,-5.258 6,-7 0.353,-5.686 -2.084,-8.583 -2,-14 -2.63,-0.296 -0.787,3.88 -4,3 1.899,-2.435 3.723,-4.943 3,-10 -2.507,-2.522 -3.163,1.912 -5,3 -3.217,-0.386 6.239,-4.063 4,-10 -1.837,-0.463 -7.024,4.278 -9,7 -3.397,2.416 -0.98,-1.562 1,-2 1.286,-1.714 2.068,-3.933 5,-4 0.306,-3.027 3.094,-3.572 2,-8 -0.566,-1.46 -4.704,1.884 -5,4 -2.924,-3.643 5.948,-4.014 4,-10 -1.194,-2.088 -3.424,3.164 -6,3 -2.492,-0.092 10.119,-4.805 5,-11 -1.357,-1.613 -4.514,3.429 -7,4 -1.2,-2.903 8.451,-3.522 7,-10 -2.838,-1.136 -7.485,4.487 -11,6 -0.315,-3.671 11.077,-4.238 10,-12 -1.035,-1.929 -3.965,2.622 -5,4 -0.932,-3.295 7.292,-6.019 5,-14 -3.135,-0.468 -2.819,2.515 -4,4 -1.731,-3.105 5.607,-5.695 3,-13 -3.995,1.005 -5.74,4.26 -9,6 -0.179,-1.553 5.607,-5.696 9,-7 1.392,-7.393 -1.35,-10.65 -6,-12 0.914,-2.719 1.859,2.664 5,1 0,-1.333 0,-2.667 0,-4 -1.514,-3.024 -4.389,0.829 -7,0 -1.967,-1.073 4.158,-2.43 7,-2 0.726,-3.059 -1.726,-2.941 -1,-6 -0.903,-2.709 -2.237,2.286 -4,2 -3.057,1.033 3.633,-3.047 4,-5 -0.042,-3.292 -1.688,-4.979 -1,-9 -1.821,-1.754 -5.494,3.123 -8,4 -0.828,-3.19 9.912,-3.399 8,-11 -1.371,-2.265 -4.118,2.47 -6,3 -2.043,-3.089 8.125,-2.508 6,-9 -0.111,-2.448 -3.306,-0.212 -3,1 -2.26,-2.004 4.95,-2.992 3,-8 -1.792,2.541 -5.225,3.442 -8,5 -0.115,-2.809 10.814,-3.165 8,-12 -0.437,-1.484 -1.279,0.395 -3,0 2.187,-1.813 4.638,-3.362 4,-8 -0.708,-3.626 -7.288,-1.379 -11,-2 -7.217,-3.778 5.87,0.251 11,-1 1.853,-2.146 0.675,-7.325 1,-11 0.18,-1.588 -7.413,6.508 -6,3 2.991,-1.676 4.756,-4.577 7,-7 0.461,-9.008 -1.633,-14.372 1,-21 -4.283,5.431 -0.73,12.557 -7,16 2.641,-2.043 3.225,-14.762 7,-19 -3.936,1.696 -8.661,6.743 -11,9 -2.01,1.939 -2.521,4.701 -1,2 3.954,-7.021 10.044,-8.374 12,-19 -1.707,2.572 -10.667,13.728 -7,9 1.396,-6.271 7.722,-7.611 7,-16 -0.309,-2.114 -3.473,1.051 -3,3 -1.693,-3.396 5.393,-6.58 3,-14 -3.252,2.748 -4.803,7.197 -7,11 0.352,-5.661 7.374,-13.283 8,-22 -3.757,-0.757 -3.383,2.617 -5,4 -6.03,-1.422 -12.487,6.47 -14,3 9.559,-2.498 19.816,-8.311 16,-21 -1.05,-1.307 -5.129,2.813 -8,3 -0.706,-2.079 8.415,-2.889 9,-7 -0.371,-3.296 -2.336,-4.997 -4,-7 0.56,-2.897 1.56,1.534 3,1 -1.944,-4.675 -0.94,-12.188 1,-16 -2.673,-0.64 -5.914,6.728 -9,9 -0.646,7.714 -2.293,6.066 -1,-1 3.694,-3.306 7.703,-6.297 9,-12 -1.688,-1.297 -3.648,5.642 -6,7 2.333,-3.91 6.458,-10.626 4,-21 l 0.5,-1.5 -1.5,0.5 c -0.022,-2.356 1.723,-2.944 1,-6 -3.832,0.502 -3.389,5.278 -6,7 -1.438,-1.83 3.779,-5.511 4,-9 0.745,-3.078 -2.745,-1.922 -2,-5 -3.859,9.099 -7.855,14.532 -5,6 0.715,-2.137 4.809,-6.087 3,-13 -5.833,1.5 -7.782,6.885 -14,8 3.845,-3.489 8.58,-6.087 13,-9 -1.448,-5.219 -3.127,-10.206 -5,-15 l 0.5,-1.5 -1.5,0.5 c 0.58,-3.247 -0.681,-4.652 -1,-7 l 0.5,-1.5 -1.5,0.5 c -1.274,-8.726 -3.406,-16.594 -6,-24 -3.474,2.193 -4.762,6.571 -8,9 -0.457,-4.282 5.833,-5.272 7,-11 1.472,-7.223 -3.487,-16.877 -3,-25 -12.356,1.29 -29.33,3.977 -37,13 -0.548,19.452 -8.053,31.947 -26,34 -2.486,9.627 -13.438,17.237 -28,16 -16.775,-1.425 -22.356,-18.936 -36,-13 -4.036,16.762 -38.858,13.05 -40,-4 -2.212,1.455 -6.66,0.674 -8,3 2.087,3.913 4.523,7.477 7,11 -4.082,1.554 -5.047,-12.23 -11,-9 -0.706,6.215 8.477,10.727 10,18 -4.184,-5.149 -8.019,-10.648 -12,-16 -0.804,0.529 -1.624,1.043 -3,1 1.169,6.498 5.97,9.363 9,14 -4.822,1.324 -6.706,-13.747 -13,-11 -2.116,2.846 4.495,3.647 5,7 -1.862,1.779 -4.752,-8.035 -9,-4 l -1.5,-0.5 0.5,1.5 c -1.964,1.703 -4.998,2.335 -6,5 l -1.5,-0.5 0.5,1.5 c -6.527,0.139 -8.712,4.621 -14,6 0,2.333 0,4.667 0,7 -1.108,2.619 -1.275,-3.942 -2,-5 -2.305,1.028 -3.225,3.442 -7,3 -0.271,3.395 0.774,8.107 -1,10 -2,-1.105 1.218,-5.37 0,-9 -4.559,-0.608 -4.111,2.237 -3,5 -1.759,-0.241 -2.279,-1.721 -2,-4 -3.698,0.668 -6.474,2.854 -4,7 -0.777,2.288 -2.101,-3.117 -2,-5 -6.117,0.883 -8.426,5.574 -10,11 -2.267,-0.983 1.717,-5.007 -3,-5 0.068,-4.671 2.286,1.171 4,1 -0.282,-1.615 0.945,-1.722 1,-3 -2.735,-2.992 -6.608,1.335 -11,0 0,1.667 0,3.333 0,5 -2.784,0.451 0.784,-5.451 -2,-5 -4.219,-1.552 0.219,5.552 -4,4 0.529,-0.804 1.043,-1.624 1,-3 -4.997,0.351 -12.398,6.924 -17,11 0.013,1.987 2.729,1.271 2,4 -2.306,0.306 -1.111,-2.889 -3,-3 -0.804,0.529 -1.624,1.043 -3,1 -2.128,2.422 2.228,4.422 4,6 -1.478,2.055 -3.867,-3.399 -7,-3 3.149,3.382 -8.86,0.824 -3,9 -2.054,-0.279 -1.996,-2.671 -3,-4 -3.174,2.493 -6.558,4.776 -10,7 -0.171,1.714 5.671,3.932 1,4 -1.324,-5.839 -7.476,0.215 -11,1 1.651,4.154 1.393,11.903 -3,13 2.244,-2.297 4.911,-9.476 1,-12 -3.581,1.722 -2.203,11.973 -3,1 -3.147,1.519 -6,3.333 -10,4 0,2.333 0,4.667 0,7 -1.546,3.057 -0.881,-4.338 -1,-6 -2.348,0.319 -3.753,1.58 -7,1 l -2.5,-2.5 0.5,3.5 c -3.911,0.089 -6.776,1.224 -6,6 l -3,-0.25 -2,2.25 c -5.974,2.693 -9.502,7.832 -16,10 -0.178,3.511 3.378,3.289 4,6 -1.848,2.104 -3.023,-4.919 -6,-5 -5.007,-0.34 -5.523,3.811 -11,3 2.592,2.741 6.252,4.415 9,7 -0.749,1.981 -9.85,-7.662 -12,-7 -0.988,0.304 -0.576,6.975 -1,-1 -2.054,0.279 -1.996,2.671 -3,4 -2.595,-0.846 1.924,-4.387 -1,-6 -2.544,0.122 -3.878,1.455 -4,4 -1.549,-2.278 5.609,-8.977 -3,-9 -0.903,12.146 -8.998,20.705 -5,32 -0.134,3.866 -4.056,3.944 -5,7 1.162,16.6 -0.63,24.354 0,42 0.004,3.671 -3.501,3.832 -5,6 1.241,11.504 -4.567,22.299 0,31 -1.506,1.493 -1.518,4.482 -5,4 -0.382,3.716 4.052,2.614 3,7 -0.915,6.086 -3.824,10.176 -6,15 5.368,15.725 -9.102,27.754 -3,42 -1.571,2.763 -5.249,3.418 -6,7 4.625,9.789 -3.449,12.123 0,20 -0.386,3.947 -3.23,5.437 -5,8 3.841,11.624 -4.018,18.153 -5,30 -0.329,3.97 -3.783,7.052 -4,9 -0.223,2.001 2.329,3.173 2,5 -0.494,2.741 -1.901,7.512 -3,11 -2.713,8.611 -3.642,17.515 -8,24 -0.042,7.942 -0.452,23.316 -8,27 5.412,6.89 -0.952,14.453 -5,18 4.924,8.975 -0.408,22.176 -9,24 -3.165,8.276 1.543,14.34 1,23 -5.939,3.322 -4.471,8.061 -10,12 -0.525,4.858 4.252,4.415 4,9 -3.531,8.573 -12.608,12.597 -8,24 -4.75,3.916 -8.9,8.434 -13,13 0.755,4.244 2.335,7.665 2,13 -2.573,3.094 -4.74,6.594 -10,7 0.872,6.538 -2.979,8.354 -6,11 6.364,14.24 -8.815,20.984 -19,25 0.159,13.826 -2.903,24.431 -16,25 -5.355,5.903 -2.571,27.449 -16,19 0.014,9.136 -3.315,19.852 -14,15 -3.367,4.633 -5.892,10.107 -9,15 -13.337,3.996 -14.122,20.544 -30,22 -1.674,3.66 -2.359,8.307 -5,11 -9.415,-0.415 -13.436,4.564 -16,11 -3.247,0.58 -4.652,-0.682 -7,-1 -2.973,2.36 -2.69,7.977 -6,10 -3.708,-0.709 -4.292,1.709 -8,1 -3.613,7.054 -13.753,7.58 -16,16 -3.469,-0.802 -3.844,1.489 -7,1 -16.027,13.64 -32.93,26.403 -45,44 -13.972,-1.361 -22.505,-8.162 -40,-6 -7.046,-4.287 -10.869,-11.798 -18,-16 -3.35,0.317 -6.304,1.03 -8,3 -3.15,0.483 -0.749,-4.584 -3,-5 0,-2.667 0,-5.333 0,-8 3.707,-6.978 7.282,-13.428 14,-17 44.928,-23.893 79.27,-60.328 112,-98 24.292,-27.959 46.751,-57.747 64,-93 5.77,-11.791 9.032,-24.506 16,-36 -2.205,-9.803 3.295,-19.065 6,-27 1.601,-4.694 1.048,-7.45 2,-13 0.726,-4.235 3.844,-7.418 5,-12 1.019,-4.037 0.147,-9.005 1,-13 0.93,-4.354 4.262,-8.025 5,-12 2.225,-11.979 -0.406,-26.619 7,-38 -0.991,-17.311 3.172,-34.55 5,-51 1.161,-10.452 1.756,-21.176 3,-31 0.478,-3.777 -4.144,-12.008 3,-17 -3.955,-6.639 -1.563,-11.389 -2,-18 5.371,-3.541 -1.458,-10.534 1,-16 0.672,-6.604 0.429,-11.781 0,-18 -0.158,-2.286 2.238,-0.633 1,-4 -1.794,-4.878 -2.593,-6.982 2,-12 -9.1,-3.966 1.037,-10.775 -5,-16 1.458,-2.542 1.903,-6.097 6,-6 -7.396,-4.778 -2.627,-16.276 -7,-23 0.373,-5.294 7.447,-3.887 9,-8 -14.427,-2.938 -1.34,-16.061 -9,-24 0.344,-6.323 7.971,-5.362 8,-12 -15.588,-6.934 -1.721,-32.234 0,-46 -12.879,-17.496 1.74,-40.997 3,-59 0.429,-6.131 -2.171,-12.829 -2,-19 0.365,-13.136 7.359,-25.076 9,-38 1.556,-12.261 1.523,-22.833 4,-35 6.278,-30.847 13.547,-62.946 19,-95 3.686,-21.668 6.361,-42.903 12,-64 9.313,-34.846 12.116,-66.838 20,-102 2.817,-12.565 4.545,-25.36 9,-36 12.833,-30.651 14.919,-59.956 26,-88 8.916,-9.643 13.979,-16.838 23,-22 9.241,-5.288 20.422,-5.245 32,-10 12.083,-4.962 22.914,-17.551 38,-25 6.919,-3.416 13.801,-7.342 21,-11 6.98,-3.546 12.37,-8.996 19,-12 19.22,-8.709 42.527,-12.174 60,-24 8.729,-5.908 14.718,-15.561 22,-23 7.455,-7.616 15.043,-15.245 22,-22 7.365,-7.152 16.97,-12.678 25,-20 31.154,-28.407 66.606,-49.091 113,-65 16.525,-5.667 29.745,-17.087 51,-14 4.855,0.705 9.708,4.581 16,7 12.119,4.66 24.228,6.141 33,14 19.325,-3.341 26.331,19.582 46,20 13.545,0.288 29.682,-8.075 42,-12 26.797,-8.539 52.771,-12.929 88,-7 14.176,2.386 28.926,2.291 43,4 29.242,3.551 59.278,4.649 88,4 81.249,-1.835 160.818,-3.526 237,-5 49.137,-0.951 96.766,-13.022 139,-27 54.733,-18.114 102.699,-33.986 164,-34 z m 658,1066 c -2.658,0.563 -5.092,-4.113 -7,-1 2.568,1.432 6.334,1.666 8,4 -2.786,0.374 -6.085,-3.809 -8,-1 3.467,0.533 5.324,2.676 9,3 h 2 v -2 c -2.678,-7.376 -8.422,-18.43 -12,-30 1.573,9.427 1.737,20.263 8,25 l -0.5,1 z m -7,-7 c 0,1.333 0,2.667 0,4 2.562,-1.084 4.768,3.038 6,0 -2.711,-0.622 -2.489,-4.178 -6,-4 z m -703,-19 c -0.532,-2.801 -1.468,-5.199 -2,-8 -2.072,0.595 -6.569,-1.236 -7,1 4.555,0.779 5.266,5.4 9,7 z m -44,-9 c 0.74,2.927 2.418,4.915 4,7 -10e-4,-3.666 0.389,-7.723 -4,-7 z m -167,-2 c 0,-1.667 0,-3.333 0,-5 -1.273,-0.203 -4.898,-2.907 -5,-1 1.597,2.07 2.172,5.162 5,6 z m -267,47 c 0,-2.667 0,-5.333 0,-8 -3.232,0.768 -5.232,2.768 -6,6 2.928,-0.261 3.072,2.261 6,2 z m -110,160 c 0.642,4.024 -1.3,10.634 1,13 1.339,-3.661 3.815,-6.185 5,-10 -2.111,-0.889 -2.956,-3.045 -6,-3 z M 2340,985 c 1.214,1.52 4.212,6.365 7,3 -2.075,-0.658 -4.844,-5.733 -7,-3 z m 3,27 c -3.953,4.483 0.551,11.059 4,14 0.177,-6.177 0.539,-12.538 -4,-14 z m -24,11 c -0.635,-3.364 -0.709,-7.291 -3,-9 -0.238,4.238 0.079,7.921 3,9 z m 1,7 c -2.04,-3.627 -3.96,-7.374 -6,-11 1.041,6.293 1.958,12.709 6,16 -1.023,-3.676 -3.034,-4.48 0,-5 z m 6,2 c 1.326,-3.615 0.014,-9.777 -3,-12 0.721,5.119 2.938,8.827 3,12 z m 13,26 c 0.667,0 1.333,0 2,0 0.055,-1.278 1.282,-1.385 1,-3 -2.332,0.855 -4.309,-3.497 -5,-1 1.342,0.658 1.862,2.138 2,4 z m 25,2 c 2.839,-1.657 -5.412,-8.088 -3,-6 0.776,2.224 0.577,5.423 3,6 z m 3,-2 c 2.039,0.294 1.961,2.706 4,3 0,-1.003 0.81,-1.19 1,-2 -2.039,-0.294 -1.961,-2.706 -4,-3 0,1.003 -0.81,1.19 -1,2 z m -11,10 c -0.838,-3.829 -2.356,-6.977 -6,-8 0.546,4.121 3.289,6.044 6,8 z m 18,0 c -1.794,-0.618 -6.138,-3.756 -7,-2 2.38,0.032 4.771,5.123 7,2 z"
   id="path7"
   style="fill-rule:evenodd" />
            
            <path
   d="m 2339,1122 c -0.168,-2.168 3.547,-0.453 5,-1 2.55,2.793 2.568,5.998 3,8 1.391,6.46 -0.695,-6.683 -6,-7 -0.667,0 -1.333,0 -2,0 z"
   id="path9"
   style="fill-rule:evenodd" />
            
            <path
   d="m 2413,1113 c -4.199,1.175 -5.942,-8.706 -11,-10 4.351,-1.325 7.188,7.459 11,10 z"
   id="path11"
   style="fill-rule:evenodd" />
            
            <path
   d="m 2375,1113 c 1.244,-1.5 1.558,6.386 2,9 -1.132,1.388 -2.033,-5.909 -2,-9 z"
   id="path13"
   style="fill-rule:evenodd" />
            
            <g
   id="g15">
                
                <path
   d="m 2282.5,834.5 c 6.488,1.949 13.736,6.126 16,13"
   id="path17"
   style="fill:none;stroke:#000000;stroke-width:1.0239;stroke-linecap:round" />
                
                <path
   d="m 2281.5,839.5 c 8.918,-1.69 13.511,8.216 16,15"
   id="path19"
   style="fill:none;stroke:#000000;stroke-width:1.0577;stroke-linecap:round" />
                
                <path
   d="m 2285.5,853.5 c 0.331,0.003 0.66,0.006 0.991,0.009 4.631,4.387 8.155,10.931 10.009,16.991"
   id="path21"
   style="fill:none;stroke:#000000;stroke-width:1.0753;stroke-linecap:round" />
                
                <path
   d="m 2337.5,963.5 c 1.413,0.288 2.581,0.439 3.5,0.5"
   id="path23"
   style="fill:none;stroke:#000000;stroke-width:2.6874;stroke-linecap:round" />
                
                <path
   d="m 2341,964 c 0.221,-0.121 0.443,-0.242 0.664,-0.364 6.521,1.877 15.12,7.839 14.336,15.364"
   id="path25"
   style="fill:none;stroke:#000000;stroke-width:1.1662;stroke-linecap:round" />
                
                <path
   d="m 2356,979 c 3.858,2.549 6.436,8.676 3.875,13"
   id="path27"
   style="fill:none;stroke:#000000;stroke-width:2.5593;stroke-linecap:round" />
                
                <path
   d="m 2359.875,992 c 0.25,0.333 0.5,0.667 0.75,1"
   id="path29"
   style="fill:none;stroke:#000000;stroke-width:5;stroke-linecap:round" />
                
                <path
   d="m 2360.625,993 c 1.371,0.123 3.356,0.389 4.959,0.638 2.17,2.007 3.28,5.519 2.416,8.362"
   id="path31"
   style="fill:none;stroke:#000000;stroke-width:1.3784;stroke-linecap:round" />
                
                <path
   d="m 2368,1002 c 0.303,2.445 1.248,4.689 2,7"
   id="path33"
   style="fill:none;stroke:#000000;stroke-width:1.5353;stroke-linecap:round" />
                
                <path
   d="m 2370,1009 c 0.921,-0.489 2.279,-0.478 3.205,-0.196 0.328,0.332 0.696,0.631 1.064,0.927 0.191,3.455 1.339,7.954 -2.27,10.103"
   id="path35"
   style="fill:none;stroke:#000000;stroke-width:1.5031;stroke-linecap:round" />
                
                <path
   d="m 2372,1019.833 c 0.078,0.772 -0.01,1.704 -0.137,2.576"
   id="path37"
   style="fill:none;stroke:#000000;stroke-width:6.1373;stroke-linecap:round" />
                
                <path
   d="m 2371.863,1022.409 c 0.302,3.029 0.854,6.021 0.637,9.091"
   id="path39"
   style="fill:none;stroke:#000000;stroke-width:3.4306;stroke-linecap:round" />
                
                <path
   d="m 2372.5,1031.5 c 1.541,3.858 1.817,9.326 -0.5,13"
   id="path41"
   style="fill:none;stroke:#000000;stroke-width:1.3513;stroke-linecap:round" />
                
                <path
   d="m 2372,1044.5 c 0,0.233 0,0.467 0,0.7"
   id="path43"
   style="fill:none;stroke:#000000;stroke-width:4;stroke-linecap:round" />
                
                <path
   d="m 2372,1045.2 c 1.807,0.573 3.528,1.54 5.5,1.3"
   id="path45"
   style="fill:none;stroke:#000000;stroke-width:3.7118;stroke-linecap:round" />
                
                <path
   d="m 2377.5,1046.5 c 2.723,-6.397 -0.82,-13.402 -1,-20"
   id="path47"
   style="fill:none;stroke:#000000;stroke-width:1.2397;stroke-linecap:round" />
                
                <path
   d="m 2377.5,1046.5 c 0.222,0.444 0.445,0.889 0.667,1.333"
   id="path49"
   style="fill:none;stroke:#000000;stroke-width:2.2361;stroke-linecap:round" />
                
                <path
   d="m 2378.167,1047.833 c 4.825,2.107 9.059,5.94 12.833,9.167"
   id="path51"
   style="fill:none;stroke:#000000;stroke-width:1.1832;stroke-linecap:round" />
                
                <path
   d="m 2391,1057 c 18.109,3.047 36.07,11.799 51.5,22.5"
   id="path53"
   style="fill:none;stroke:#000000;stroke-width:1.326;stroke-linecap:round" />
                
                <path
   d="m 2377.5,1052.5 c -1.287,1.092 -0.448,3.091 -1.545,4.142 -2.182,-0.201 -4.051,-1.289 -5.955,-2.392"
   id="path55"
   style="fill:none;stroke:#000000;stroke-width:1.3314;stroke-linecap:round" />
                
                <path
   d="m 2375.5,1062.5 c 12.809,-0.451 21.355,10.275 32.5,12.5"
   id="path57"
   style="fill:none;stroke:#000000;stroke-width:1.2475;stroke-linecap:round" />
                
                <path
   d="m 2408,1075 c 0.217,-0.117 0.434,-0.233 0.65,-0.35 10.248,0.148 15.3,13.012 25.85,13.85"
   id="path59"
   style="fill:none;stroke:#000000;stroke-width:1.0465;stroke-linecap:round" />
                
                <path
   d="m 2413,1085 c 1.521,0.145 2.225,1.109 3.5,1.5"
   id="path61"
   style="fill:none;stroke:#000000;stroke-width:1.3416;stroke-linecap:round" />
                
                <path
   d="m 2416.5,1086.5 c 8.812,2.267 17.492,7.014 25,12"
   id="path63"
   style="fill:none;stroke:#000000;stroke-width:1.0848;stroke-linecap:round" />
                
                <path
   d="m 2422,1094 c 1.592,2.166 4.674,2.275 6,4.5"
   id="path65"
   style="fill:none;stroke:#000000;stroke-width:1.4142;stroke-linecap:round" />
                
                <path
   d="m 2428,1098.5 c 8.025,1.33 10.838,10.395 15.5,16"
   id="path67"
   style="fill:none;stroke:#000000;stroke-width:1.0033;stroke-linecap:round" />
                
                <path
   d="m 2428,1098.5 c 3.061,5.97 5.938,11.843 8.5,18"
   id="path69"
   style="fill:none;stroke:#000000;stroke-width:1.1832;stroke-linecap:round" />
                
                <path
   d="m 2413.5,1103.5 c 9.277,8.348 17.055,18.204 22,30"
   id="path71"
   style="fill:none;stroke:#000000;stroke-width:1.0364;stroke-linecap:round" />
                
                <path
   d="m 2404,1099 c -0.121,0.222 -0.243,0.442 -0.364,0.664 12.079,7.497 20.26,22.419 25.864,35.836"
   id="path73"
   style="fill:none;stroke:#000000;stroke-width:1.0659;stroke-linecap:round" />
                
                <path
   d="m 2389.5,1097.5 c 7.149,7.309 16.539,12.109 21.667,21.333"
   id="path75"
   style="fill:none;stroke:#000000;stroke-width:1.3047;stroke-linecap:round" />
                
                <path
   d="m 2382.167,1097.833 c 0.92,0.901 2.062,1.268 3.067,1.936 0.519,16.186 23.385,18.209 25.266,34.731"
   id="path77"
   style="fill:none;stroke:#000000;stroke-width:1.5284;stroke-linecap:round" />
                
                <path
   d="m 2372.5,1097.5 c 0.06,0.667 0.276,1.333 0.5,2"
   id="path79"
   style="fill:none;stroke:#000000;stroke-width:2.8284;stroke-linecap:round" />
                
                <path
   d="m 2373,1099.5 c 12.305,4.243 17.073,18.864 27.5,26"
   id="path81"
   style="fill:none;stroke:#000000;stroke-width:1.0296;stroke-linecap:round" />
                
                <path
   d="m 2373,1099.5 c 11.896,16.211 19.09,38.435 31.5,55"
   id="path83"
   style="fill:none;stroke:#000000;stroke-width:1.2026;stroke-linecap:round" />
                
                <path
   d="m 2336.215,1074.929 c -1.829,-1.174 -3.637,-2.424 -5.215,-3.929"
   id="path85"
   style="fill:none;stroke:#000000;stroke-width:3.7033;stroke-linecap:round" />
                
                <path
   d="m 2331.5,1102.5 c 5.317,-1.099 9.902,1.973 12.778,6.217 -0.377,1.157 -1.386,1.779 -2.005,2.54 -2.608,0.886 -4.715,2.884 -7.773,2.243"
   id="path87"
   style="fill:none;stroke:#000000;stroke-width:1.1516;stroke-linecap:round" />
                
                <path
   d="m 1368.5,1011.5 c -1.118,2.045 -2.106,4.348 -3.525,6.155 -3.815,-1.262 -6.637,-4.512 -10.176,-6.379 -0.404,-1.431 -0.402,-3.131 0.701,-4.776"
   id="path89"
   style="fill:none;stroke:#000000;stroke-width:1.1648;stroke-linecap:round" />
                
                <path
   d="m 1154.5,1051.5 c 3.117,7.537 5.916,15.384 9,23"
   id="path91"
   style="fill:none;stroke:#000000;stroke-width:1.0954;stroke-linecap:round" />
                
                <path
   d="m 796.5,775.5 c 6.76,1.079 12.866,-1.021 18,-5"
   id="path93"
   style="fill:none;stroke:#000000;stroke-width:1.2132;stroke-linecap:round" />
                
                <path
   d="m 445,816 c 0.797,-1.942 1.009,-4.137 1,-6.25"
   id="path95"
   style="fill:none;stroke:#000000;stroke-width:2.1794;stroke-linecap:round" />
                
                <path
   d="m 2346,973 c 1.931,2.093 4.566,3.293 6.643,5.214"
   id="path97"
   style="fill:none;stroke:#000000;stroke-width:3.1623;stroke-linecap:round" />
                
                <path
   d="m 2341,964 c 1.943,2.962 4.883,5.13 5,9"
   id="path99"
   style="fill:none;stroke:#000000;stroke-width:1.1888;stroke-linecap:round" />
                
                <path
   d="m 2337.5,963.5 c -3.664,1.854 -8.393,0.92 -12,3"
   id="path101"
   style="fill:none;stroke:#000000;stroke-width:1.3384;stroke-linecap:round" />
                
                <path
   d="m 2337.5,963.5 c -6.118,-4.638 -14.73,-5.055 -22,-2"
   id="path103"
   style="fill:none;stroke:#000000;stroke-width:2.0066;stroke-linecap:round" />
                
                <path
   d="m 2377.5,1051.5 c 0,0.334 0,0.666 0,1"
   id="path105"
   style="fill:none;stroke:#000000;stroke-linecap:round" />
                
                <path
   d="m 2377.5,1052.5 c 4.41,1.572 8.529,6.359 13.5,4.5"
   id="path107"
   style="fill:none;stroke:#000000;stroke-width:1.1151;stroke-linecap:round" />
                
                <path
   d="m 2396,1080 c 4.737,3.747 11.453,2.766 17,5"
   id="path109"
   style="fill:none;stroke:#000000;stroke-width:1.9833;stroke-linecap:round" />
                
                <path
   d="m 2413,1085 c -0.563,-3.728 -2.165,-7.422 -5,-10"
   id="path111"
   style="fill:none;stroke:#000000;stroke-width:1.1776;stroke-linecap:round" />
                
                <path
   d="m 2391.192,1080.73 c 0.27,0.09 0.538,0.18 0.808,0.27"
   id="path113"
   style="fill:none;stroke:#000000;stroke-width:6.3246;stroke-linecap:round" />
                
                <path
   d="m 2392,1081 c 1.863,-0.819 3.014,-0.867 4,-1"
   id="path115"
   style="fill:none;stroke:#000000;stroke-width:4.1473;stroke-linecap:round" />
                
                <path
   d="m 2396,1080 c 0.17,-0.218 0.34,-0.436 0.51,-0.652 -0.882,-7.444 -11.156,-9.425 -17.01,-11.848"
   id="path117"
   style="fill:none;stroke:#000000;stroke-width:1.2607;stroke-linecap:round" />
                
                <path
   d="m 2392,1081 c 2.023,6.296 9.307,3.159 13.167,7.167"
   id="path119"
   style="fill:none;stroke:#000000;stroke-width:2.1794;stroke-linecap:round" />
                
                <path
   d="m 2405.167,1088.167 c 5.839,0.443 10.646,6.442 16.833,5.833"
   id="path121"
   style="fill:none;stroke:#000000;stroke-width:1.5575;stroke-linecap:round" />
                
                <path
   d="m 2422,1094 c -0.844,-2.367 -3.229,-3.449 -5.201,-4.724 -0.202,-0.854 -0.233,-1.824 -0.299,-2.776"
   id="path123"
   style="fill:none;stroke:#000000;stroke-width:1.1292;stroke-linecap:round" />
                
                <path
   d="m 2392,1092.333 c 3.483,3.224 8.318,3.595 12,6.667"
   id="path125"
   style="fill:none;stroke:#000000;stroke-width:1.9424;stroke-linecap:round" />
                
                <path
   d="m 2404,1099 c 2.907,1.852 5.939,4.216 9.5,4.5"
   id="path127"
   style="fill:none;stroke:#000000;stroke-width:1.1619;stroke-linecap:round" />
                
                <path
   d="m 2413.5,1103.5 c -2.257,-5.406 -7.008,-9.735 -8.333,-15.333"
   id="path129"
   style="fill:none;stroke:#000000;stroke-width:1.1892;stroke-linecap:round" />
                
                <path
   d="m 2385.5,1090.5 c 0.167,0.166 0.333,0.334 0.5,0.5"
   id="path131"
   style="fill:none;stroke:#000000;stroke-width:4.2426;stroke-linecap:round" />
                
                <path
   d="m 2386,1091 c 2.268,-1.068 3.846,1.471 6,1.333"
   id="path133"
   style="fill:none;stroke:#000000;stroke-width:2.5386;stroke-linecap:round" />
                
                <path
   d="m 2392,1092.333 c -0.045,-4.324 -6.568,-5.534 -5.25,-10.333"
   id="path135"
   style="fill:none;stroke:#000000;stroke-width:1.2437;stroke-linecap:round" />
                
                <path
   d="m 2389.5,1097.5 c 0.062,-1.061 -0.07,-1.932 -0.309,-2.698 -1.766,-0.567 -2.789,-1.985 -3.191,-3.802"
   id="path137"
   style="fill:none;stroke:#000000;stroke-width:2.1122;stroke-linecap:round" />
                
                <path
   d="m 2378,1092.5 c 1.236,0.843 2.438,1.877 3.5,3"
   id="path139"
   style="fill:none;stroke:#000000;stroke-width:2.2638;stroke-linecap:round" />
                
                <path
   d="m 2381.5,1095.5 c 2.967,-0.443 5.271,1.773 8,2"
   id="path141"
   style="fill:none;stroke:#000000;stroke-width:1.2593;stroke-linecap:round" />
                
                <path
   d="m 2336.215,1074.929 c 4.178,13.391 21.248,18.307 33.285,21.571"
   id="path143"
   style="fill:none;stroke:#000000;stroke-width:1.1014;stroke-linecap:round" />
                
                <path
   d="m 2369.5,1096.5 c -0.597,-4.161 -6.105,-5.748 -7,-10"
   id="path145"
   style="fill:none;stroke:#000000;stroke-width:1.0117;stroke-linecap:round" />
                
                <path
   d="m 2369.5,1096.5 c 0.594,0.371 1.797,0.517 3,1"
   id="path147"
   style="fill:none;stroke:#000000;stroke-width:2;stroke-linecap:round" />
                
                <path
   d="m 2372.5,1097.5 c 0,-2 0,-4 0,-6"
   id="path149"
   style="fill:none;stroke:#000000;stroke-width:1.2019;stroke-linecap:round" />
                
                <path
   d="m 2372.5,1091.5 c -0.333,-0.333 -0.667,-0.667 -1,-1"
   id="path151"
   style="fill:none;stroke:#000000;stroke-width:1.633;stroke-linecap:round" />
                
                <path
   d="m 2359.5,1082.5 c 1.047,1.35 1.911,2.707 3,4"
   id="path153"
   style="fill:none;stroke:#000000;stroke-width:1.3628;stroke-linecap:round" />
                
                <path
   d="m 2362.5,1086.5 c 3.372,0.269 5.551,3.968 9,4"
   id="path155"
   style="fill:none;stroke:#000000;stroke-width:1.0954;stroke-linecap:round" />
                
                <path
   d="m 2371.5,1090.5 c 0.265,-2.618 -0.559,-5.14 -0.5,-7.75"
   id="path157"
   style="fill:none;stroke:#000000;stroke-width:1.3333;stroke-linecap:round" />
                
                <path
   d="m 2326.5,1065 c 2.418,1.158 3.062,3.962 4.5,6"
   id="path159"
   style="fill:none;stroke:#000000;stroke-width:1.7581;stroke-linecap:round" />
                
                <path
   d="m 1029,1213 c 0.653,0.776 1.631,1.491 2.509,1.891 0.683,-0.596 1.172,-1.108 1.761,-1.609 0.438,-5.016 0.749,-10.876 -2.77,-14.781"
   id="path161"
   style="fill:none;stroke:#000000;stroke-width:1.174;stroke-linecap:round" />
                
                <path
   d="m 800.5,725.5 c -2.546,4.138 -6.336,7.976 -8.301,12.118 3.746,0.91 7.44,-1.949 10.301,-4.118"
   id="path163"
   style="fill:none;stroke:#000000;stroke-width:1.3136;stroke-linecap:round" />
                
                <path
   d="m 588.5,740.5 c 2.563,1.67 4.858,3.829 7.475,5.229 0.696,-3.426 1.283,-8.013 -0.475,-11.229"
   id="path165"
   style="fill:none;stroke:#000000;stroke-width:1.2151;stroke-linecap:round" />
                
                <path
   d="m 446,809.75 c 2.95,0.856 5.047,3.165 7.96,3.984 4.207,-2.399 3.037,-9.669 0.54,-13.234"
   id="path167"
   style="fill:none;stroke:#000000;stroke-width:1.3106;stroke-linecap:round" />
                
                <path
   d="m 2343.167,972.833 c -0.036,-0.13 -0.071,-0.26 -0.107,-0.39 -3.932,-2.533 -9.852,-2.971 -14.56,-1.943"
   id="path169"
   style="fill:none;stroke:#000000;stroke-width:1.9208;stroke-linecap:round" />
                
                <path
   d="m 2346,973 c -1.39,0.01 -2.077,-0.076 -2.833,-0.167"
   id="path171"
   style="fill:none;stroke:#000000;stroke-width:2.1213;stroke-linecap:round" />
                
                <path
   d="m 2343.167,972.833 c -2.267,1.624 -5.587,-0.478 -7.667,1.667"
   id="path173"
   style="fill:none;stroke:#000000;stroke-width:1.3363;stroke-linecap:round" />
                
                <path
   d="m 2352,980 c -4.626,-0.742 -12.224,-4.126 -16,2"
   id="path175"
   style="fill:none;stroke:#000000;stroke-width:1.3472;stroke-linecap:round" />
                
                <path
   d="m 2356,979 c -0.295,-0.149 -1.957,-0.449 -3.357,-0.786"
   id="path177"
   style="fill:none;stroke:#000000;stroke-width:3.4059;stroke-linecap:round" />
                
                <path
   d="m 2352.643,978.214 c -0.352,0.764 -0.502,1.28 -0.643,1.786"
   id="path179"
   style="fill:none;stroke:#000000;stroke-width:2.1213;stroke-linecap:round" />
                
                <path
   d="m 2352,980 c 1.709,4.123 3.203,8.149 5.682,11.772"
   id="path181"
   style="fill:none;stroke:#000000;stroke-width:1.6648;stroke-linecap:round" />
                
                <path
   d="m 2358.5,1008.5 c -0.335,-0.116 -0.67,-0.232 -1.006,-0.349 -3.292,-5.6 -5.451,-11.875 -8.494,-17.484"
   id="path183"
   style="fill:none;stroke:#000000;stroke-width:1.2877;stroke-linecap:round" />
                
                <path
   d="m 2349,990.667 c -0.333,-0.111 -0.667,-0.223 -1,-0.334"
   id="path185"
   style="fill:none;stroke:#000000;stroke-width:3.1623;stroke-linecap:round" />
                
                <path
   d="m 2358.25,992 c -0.189,-0.076 -0.379,-0.151 -0.568,-0.228"
   id="path187"
   style="fill:none;stroke:#000000;stroke-width:5.3852;stroke-linecap:round" />
                
                <path
   d="m 2357.682,991.772 c -3.021,0.916 -5.727,-1.092 -8.682,-1.105"
   id="path189"
   style="fill:none;stroke:#000000;stroke-width:2.2361;stroke-linecap:round" />
                
                <path
   d="m 2360.625,993 c 1.095,3.824 3.447,7.729 7.375,9"
   id="path191"
   style="fill:none;stroke:#000000;stroke-width:2.7042;stroke-linecap:round" />
                
                <path
   d="m 2360.5,1015.5 c 3.696,1.844 6.438,4.826 9.667,7.333"
   id="path193"
   style="fill:none;stroke:#000000;stroke-width:1.3808;stroke-linecap:round" />
                
                <path
   d="m 2370.167,1022.833 c 0.565,-0.141 1.132,-0.282 1.696,-0.424"
   id="path195"
   style="fill:none;stroke:#000000;stroke-width:4.1231;stroke-linecap:round" />
                
                <path
   d="m 2359.875,992 c -0.781,0 -1.213,0 -1.625,0"
   id="path197"
   style="fill:none;stroke:#000000;stroke-width:6.0277;stroke-linecap:round" />
                
                <path
   d="m 2358.25,992 c -2.199,5.498 2.135,10.885 0.25,16.5"
   id="path199"
   style="fill:none;stroke:#000000;stroke-width:1.6366;stroke-linecap:round" />
                
                <path
   d="m 2358.5,1008.5 c 0.614,2.332 0.24,5.099 2,7"
   id="path201"
   style="fill:none;stroke:#000000;stroke-width:2.5495;stroke-linecap:round" />
                
                <path
   d="m 2360.5,1015.5 c -0.941,1.887 0,4.122 -1,6"
   id="path203"
   style="fill:none;stroke:#000000;stroke-width:2.2136;stroke-linecap:round" />
                
                <path
   d="m 2359.5,1021.5 c 0.121,2.015 0.356,4.08 1,6"
   id="path205"
   style="fill:none;stroke:#000000;stroke-width:2.6034;stroke-linecap:round" />
                
                <path
   d="m 2360.5,1027.5 c 2.585,1.512 4.22,3.928 6.333,5.667"
   id="path207"
   style="fill:none;stroke:#000000;stroke-width:1.6036;stroke-linecap:round" />
                
                <path
   d="m 2354,1015 c -2.166,-3.964 -1.702,-9.522 -5.5,-12.5"
   id="path209"
   style="fill:none;stroke:#000000;stroke-width:1.5275;stroke-linecap:round" />
                
                <path
   d="m 2370,1009 c -0.51,3.669 0.615,7.467 2,10.833"
   id="path211"
   style="fill:none;stroke:#000000;stroke-width:3.1623;stroke-linecap:round" />
                
                <path
   d="m 2359.5,1021.5 c -3.222,-1.142 -2.917,-4.961 -5.5,-6.5"
   id="path213"
   style="fill:none;stroke:#000000;stroke-width:1.2536;stroke-linecap:round" />
                
                <path
   d="m 2354,1015 c -0.266,5.507 -2.549,9.698 -4.5,14.5"
   id="path215"
   style="fill:none;stroke:#000000;stroke-width:1.5469;stroke-linecap:round" />
                
                <path
   d="m 2366.833,1033.167 c -0.134,2.134 1.288,3.495 2.917,4.583"
   id="path217"
   style="fill:none;stroke:#000000;stroke-width:1.9235;stroke-linecap:round" />
                
                <path
   d="m 2369.75,1037.75 c 2.078,-1.373 0.588,-4.705 2.75,-6.25"
   id="path219"
   style="fill:none;stroke:#000000;stroke-width:2.2014;stroke-linecap:round" />
                
                <path
   d="m 2370.167,1022.833 c -2.683,2.808 -1.319,7.139 -3.334,10.334"
   id="path221"
   style="fill:none;stroke:#000000;stroke-width:1.4142;stroke-linecap:round" />
                
                <path
   d="m 2371.955,1045.228 c 0.015,-0.01 0.029,-0.019 0.045,-0.027"
   id="path223"
   style="fill:none;stroke:#000000;stroke-width:5.831;stroke-linecap:round" />
                
                <path
   d="m 2360.5,1027.5 c -0.623,5.004 -3.035,10.767 1,15"
   id="path225"
   style="fill:none;stroke:#000000;stroke-width:2.6293;stroke-linecap:round" />
                
                <path
   d="m 2361.5,1042.5 c 0.333,-0.187 0.667,-0.373 1,-0.561 3.389,0.19 6.647,1.266 9.455,3.288"
   id="path227"
   style="fill:none;stroke:#000000;stroke-width:1.9124;stroke-linecap:round" />
                
                <path
   d="m 2361.5,1042.5 c 0,1.333 0,2.667 0,4"
   id="path229"
   style="fill:none;stroke:#000000;stroke-width:5.0498;stroke-linecap:round" />
                
                <path
   d="m 2361.5,1046.5 c 3.174,0.114 6.078,1.619 8.667,3.333"
   id="path231"
   style="fill:none;stroke:#000000;stroke-width:1.2649;stroke-linecap:round" />
                
                <path
   d="m 2370.167,1049.833 c 0.222,-0.222 0.444,-0.444 0.666,-0.666"
   id="path233"
   style="fill:none;stroke:#000000;stroke-width:4.2426;stroke-linecap:round" />
                
                <path
   d="m 2361.5,1046.5 c -0.253,1.008 -0.705,1.943 -1.125,2.875"
   id="path235"
   style="fill:none;stroke:#000000;stroke-width:5.4467;stroke-linecap:round" />
                
                <path
   d="m 2369.75,1037.75 c -0.305,2.381 1.497,4.541 2.25,6.75"
   id="path237"
   style="fill:none;stroke:#000000;stroke-width:2.1794;stroke-linecap:round" />
                
                <path
   d="m 2370.167,1049.833 c -0.113,1.37 -0.292,3.14 -0.524,3.881"
   id="path239"
   style="fill:none;stroke:#000000;stroke-width:4.1433;stroke-linecap:round" />
                
                <path
   d="m 2377.5,1051.5 c -0.105,-1.386 0.113,-2.61 0.667,-3.667"
   id="path241"
   style="fill:none;stroke:#000000;stroke-width:1.2536;stroke-linecap:round" />
                
                <path
   d="m 2371.955,1045.228 c -0.623,0.904 -0.89,2.727 -1.122,3.939"
   id="path243"
   style="fill:none;stroke:#000000;stroke-width:4.3589;stroke-linecap:round" />
                
                <path
   d="m 2370.833,1049.167 c 1.968,1.291 4.312,2.137 6.667,2.333"
   id="path245"
   style="fill:none;stroke:#000000;stroke-width:1.3115;stroke-linecap:round" />
                
                <path
   d="m 2335.75,1063.5 c 2.771,0.093 5.834,0.672 8.083,-1.444"
   id="path247"
   style="fill:none;stroke:#000000;stroke-width:6.1237;stroke-linecap:round" />
                
                <path
   d="m 2336.215,1074.929 c 3.819,-0.833 7.043,2.035 10.785,2.071"
   id="path249"
   style="fill:none;stroke:#000000;stroke-width:2.6458;stroke-linecap:round" />
                
                <path
   d="m 2347,1077 c 2.618,-1.409 6.146,0.679 8.5,-1.5"
   id="path251"
   style="fill:none;stroke:#000000;stroke-width:1.3229;stroke-linecap:round" />
                
                <path
   d="m 2355.5,1075.5 c -1.813,-1.579 -4.281,-1.704 -6.4,-2.6"
   id="path253"
   style="fill:none;stroke:#000000;stroke-width:2.7303;stroke-linecap:round" />
                
                <path
   d="m 2349.1,1072.9 c -5.098,0.72 -14.436,-2.71 -13.35,-9.4"
   id="path255"
   style="fill:none;stroke:#000000;stroke-width:1.8588;stroke-linecap:round" />
                
                <path
   d="m 2335.75,1063.5 c -1.533,-2.796 -3.261,-5.554 -6.25,-7"
   id="path257"
   style="fill:none;stroke:#000000;stroke-width:4.7958;stroke-linecap:round" />
                
                <path
   d="m 2349.1,1072.9 c -2.094,-2.737 -3.102,-6.143 -3.1,-9.601"
   id="path259"
   style="fill:none;stroke:#000000;stroke-width:2.8123;stroke-linecap:round" />
                
                <path
   d="m 2379.5,1070.5 c 0,-0.781 0,-1.804 0,-3"
   id="path261"
   style="fill:none;stroke:#000000;stroke-width:1.1547;stroke-linecap:round" />
                
                <path
   d="m 2379.5,1067.5 c -1.549,-1.547 -4.575,-2.185 -4,-5"
   id="path263"
   style="fill:none;stroke:#000000;stroke-width:1.3844;stroke-linecap:round" />
                
                <path
   d="m 2375.5,1062.5 c -1.067,-0.641 -2.119,-1.28 -3,-1.5"
   id="path265"
   style="fill:none;stroke:#000000;stroke-width:1.3416;stroke-linecap:round" />
                
                <path
   d="m 2355.5,1075.5 c 0.882,-0.294 1.766,-0.588 2.646,-0.883"
   id="path267"
   style="fill:none;stroke:#000000;stroke-width:3.0822;stroke-linecap:round" />
                
                <path
   d="m 2358.146,1074.617 c -0.66,-1.62 -1.234,-2.723 -1.646,-4.117"
   id="path269"
   style="fill:none;stroke:#000000;stroke-width:5;stroke-linecap:round" />
                
                <path
   d="m 2376.5,1076.5 c 2.945,0.592 5.596,2.149 7.5,4.5"
   id="path271"
   style="fill:none;stroke:#000000;stroke-width:3.2733;stroke-linecap:round" />
                
                <path
   d="m 2384,1081 c 0.359,0.08 1.988,0.679 2.75,1"
   id="path273"
   style="fill:none;stroke:#000000;stroke-width:3.6056;stroke-linecap:round" />
                
                <path
   d="m 2386.75,1082 c 1.42,0.125 3.151,-0.488 4.442,-1.27"
   id="path275"
   style="fill:none;stroke:#000000;stroke-width:4.3012;stroke-linecap:round" />
                
                <path
   d="m 2391.192,1080.73 c -2.134,-5.385 -7.289,-7.509 -11.692,-10.23"
   id="path277"
   style="fill:none;stroke:#000000;stroke-width:3.681;stroke-linecap:round" />
                
                <path
   d="m 2379.5,1070.5 c -1.719,-0.494 -3.053,-1.57 -4.5,-2.5"
   id="path279"
   style="fill:none;stroke:#000000;stroke-width:1.7951;stroke-linecap:round" />
                
                <path
   d="m 2358.146,1074.617 c 3.857,2.197 8.192,2.95 11.626,6.064"
   id="path281"
   style="fill:none;stroke:#000000;stroke-width:3.7487;stroke-linecap:round" />
                
                <path
   d="m 2369.772,1080.682 c 0.571,-2.81 -1.496,-5.519 -0.228,-8.318"
   id="path283"
   style="fill:none;stroke:#000000;stroke-width:2.1712;stroke-linecap:round" />
                
                <path
   d="m 2370.5,1082.5 c 0.167,0.084 0.333,0.166 0.5,0.25"
   id="path285"
   style="fill:none;stroke:#000000;stroke-width:6.7082;stroke-linecap:round" />
                
                <path
   d="m 2371,1082.75 c 0.301,0.05 0.6,0.1 0.9,0.15"
   id="path287"
   style="fill:none;stroke:#000000;stroke-width:6.0828;stroke-linecap:round" />
                
                <path
   d="m 2371.9,1082.9 c 3.232,-2.463 5.555,1.677 8.85,1.1"
   id="path289"
   style="fill:none;stroke:#000000;stroke-width:2.3355;stroke-linecap:round" />
                
                <path
   d="m 2380.75,1084 c -1.41,-2.646 -4.814,-3.914 -4.25,-7.5"
   id="path291"
   style="fill:none;stroke:#000000;stroke-width:1.2649;stroke-linecap:round" />
                
                <path
   d="m 2376.5,1076.5 c -2.478,-0.508 -3.996,-2.671 -6,-4"
   id="path293"
   style="fill:none;stroke:#000000;stroke-width:4.916;stroke-linecap:round" />
                
                <path
   d="m 2380.75,1084 c 0.083,0 0.167,0 0.25,0"
   id="path295"
   style="fill:none;stroke:#000000;stroke-width:4;stroke-linecap:round" />
                
                <path
   d="m 2381,1084 c 1.205,-1.205 1.916,-1.916 3,-3"
   id="path297"
   style="fill:none;stroke:#000000;stroke-width:2.3664;stroke-linecap:round" />
                
                <path
   d="m 2347,1077 c 3.078,3.095 8.29,3.754 12.5,5.5"
   id="path299"
   style="fill:none;stroke:#000000;stroke-width:1.7321;stroke-linecap:round" />
                
                <path
   d="m 2359.5,1082.5 c 3.572,-1.19 7.271,0.572 11,0"
   id="path301"
   style="fill:none;stroke:#000000;stroke-width:2.1839;stroke-linecap:round" />
                
                <path
   d="m 2370.5,1082.5 c -0.21,-0.567 -0.458,-1.141 -0.728,-1.818"
   id="path303"
   style="fill:none;stroke:#000000;stroke-width:5.8595;stroke-linecap:round" />
                
                <path
   d="m 2378,1088.667 c 2.58,0.243 4.811,2.063 7.5,1.833"
   id="path305"
   style="fill:none;stroke:#000000;stroke-width:2.4152;stroke-linecap:round" />
                
                <path
   d="m 2385.5,1090.5 c 0.01,-2.933 -2.814,-4.502 -4.5,-6.5"
   id="path307"
   style="fill:none;stroke:#000000;stroke-width:2.3184;stroke-linecap:round" />
                
                <path
   d="m 2371.9,1082.9 c 1.878,2.303 3.945,3.852 6.1,5.767"
   id="path309"
   style="fill:none;stroke:#000000;stroke-width:2.892;stroke-linecap:round" />
                
                <path
   d="m 2372.5,1091.5 c 1.625,0.759 3.268,0.968 5.5,1"
   id="path311"
   style="fill:none;stroke:#000000;stroke-width:1.1292;stroke-linecap:round" />
                
                <path
   d="m 2378,1092.5 c 0,-1.541 0,-2.766 0,-3.833"
   id="path313"
   style="fill:none;stroke:#000000;stroke-width:2.0976;stroke-linecap:round" />
                
                <line
   fill-rule="evenodd"
   clip-rule="evenodd"
   fill="none"
   stroke="#000000"
   stroke-width="2.8284"
   stroke-linecap="round"
   x1="2372.5"
   y1="1097.5"
   x2="2372.5"
   y2="1097.5"
   id="line315"
   style="fill:none;stroke:#000000;stroke-width:2.8284;stroke-linecap:round" />
                
                <path
   d="m 2372.5,1097.5 c 3.482,-1.089 6.55,1.946 9.667,0.333"
   id="path317"
   style="fill:none;stroke:#000000;stroke-width:1.2834;stroke-linecap:round" />
                
                <path
   d="m 2382.167,1097.833 c -0.088,-0.532 -0.355,-1.491 -0.667,-2.333"
   id="path319"
   style="fill:none;stroke:#000000;stroke-width:2.1602;stroke-linecap:round" />
                
                <path
   d="m 445,816 c -2.018,1.079 -4.927,2.801 -5.093,5.196 2.733,1.246 6.66,-2.466 5.093,-5.196"
   id="path321"
   style="fill:none;stroke:#000000;stroke-width:1.1803;stroke-linecap:round" />
                
                <path
   d="m 2417.5,1102.5 c 8.323,3.733 13.155,12.598 19,19"
   id="path323"
   style="fill:none;stroke:#000000;stroke-width:1.5887;stroke-linecap:round" />
                
                <path
   d="m 2407.5,1058.5 c 18.123,3.438 36.146,11.173 51,22"
   id="path325"
   style="fill:none;stroke:#000000;stroke-width:1.0845;stroke-linecap:round" />
                
            </g>
            
        </g>
        
    </g>
    
</svg>
