<?xml version="1.0" encoding="UTF-8" standalone="no"?>
<!-- Created with Inkscape (http://www.inkscape.org/) -->

<svg
   xmlns:svg="http://www.w3.org/2000/svg"
   xmlns="http://www.w3.org/2000/svg"
   version="1.1"
   width="617pt"
   height="375pt"
   viewBox="0 0 617 375"
   id="svg2">
  <defs
     id="defs10" />
  <path
     d="m 0,0 617,0 0,31.46 -1.15,0.06 C 611.1,23.95 604.29,17.43 595.85,14.21 582.32,9.74 568.24,6.29 553.92,6.11 548.71,5.17 543.35,5.17 538.1,5.66 c -9,1.94 -16.96,7.05 -26.04,8.64 -7.14,3.11 -15.09,3.29 -22.28,6.28 -7.63,2.08 -14.83,5.41 -21.47,9.67 -4.8,3.26 -10.11,5.7 -14.79,9.15 -3.87,2.88 -8.23,5.03 -11.98,8.06 -6.37,5 -12.68,10.05 -19.18,14.87 -4.89,3.44 -8.47,8.35 -13.19,12 -4.99,3.98 -9.26,9 -15.01,11.93 -2.74,1.41 -5.55,-0.76 -8.33,-0.93 -0.36,0.68 -1.09,2.03 -1.45,2.71 1.12,2.29 3.57,4.15 3.31,6.91 -0.35,4.74 -2.6,9.03 -4.51,13.3 -3.76,7.58 -6.03,15.77 -9.43,23.52 -2.55,6.75 -5.33,13.41 -7.83,20.18 -1.82,5.04 -4.65,9.77 -5.3,15.16 -1.74,4.57 -3.23,9.23 -5,13.79 -3.03,6.18 -6.8,11.99 -9.49,18.35 -2.2,3.87 -3.7,9.07 -8.41,10.54 -3.65,1.56 -7.12,-1.26 -10.75,-1.33 -1.8,-0.23 -4.04,0.27 -5.17,-1.55 -1.23,-8.34 1.24,-16.59 0.82,-24.94 0.57,-12.55 -2.87,-25.32 -9.53,-35.97 -2.18,-2.9 -3.19,-6.89 -6.64,-8.63 -2.03,-1.44 -5.07,-1.75 -6.99,0.04 -4.73,3.88 -7.22,9.64 -10.33,14.76 -3.78,6.01 -7,12.41 -9.57,19.03 -1.3,5.93 -3.12,11.79 -3.44,17.89 -0.88,4.08 -2.81,7.91 -2.95,12.16 -0.53,0.11 -1.58,0.33 -2.1,0.44 -1.72,-1.89 -3.4,-3.82 -5.03,-5.79 -1.41,-0.48 -3.22,-0.55 -4.04,-1.99 -2.59,-5.21 -6.77,-9.37 -9.46,-14.53 -5.67,-6.06 -8.62,-13.95 -13.17,-20.77 -2.6,-4.08 -4.46,-8.69 -7.85,-12.21 -0.97,0 -1.93,0.01 -2.9,0.02 -0.55,4.4 -3.6,8.01 -3.96,12.47 -0.65,9.72 0.97,19.4 0.6,29.13 -0.51,7.84 2.67,15.23 3.53,22.91 -4.06,-1.86 -7.16,-5.31 -9.87,-8.79 -6.7,-8.33 -16.21,-13.89 -22.73,-22.38 -1.12,-3.08 -2.95,-5.72 -4.86,-8.34 -1.39,-3.83 -2.88,-8.25 -6.92,-10.03 -2.55,-1.63 -6.35,0.17 -8.27,-2.54 -2.06,-2.26 -2.87,-5.25 -3.84,-8.07 -0.39,-0.16 -1.18,-0.5 -1.57,-0.66 -0.3,0.47 -0.88,1.41 -1.18,1.87 2.07,3.03 3.88,9.05 -0.44,10.93 -9.62,3.38 -19.07,7.2 -28.69,10.59 -8.36,4.09 -17.12,7.27 -25.43,11.49 -12.91,6.52 -25.63,13.43 -37.95,20.98 -10.46,7.39 -19.72,16.3 -29.32,24.73 -5.87,5.8 -13.48,9.85 -17.99,16.96 -10.84,12.84 -18.29,28.21 -23.39,44.14 -1.81,4.87 -1.14,10.16 -1.2,15.24 0.14,4.55 1.56,10.08 6.13,12.07 3.67,1.61 7.21,-1.13 10.72,-1.96 4.75,-1.17 9.4,-2.71 14.1,-4.05 7.26,-0.04 14.53,-2.24 21.76,-0.59 11.27,1.25 22.41,4.62 32.14,10.46 4.14,2.49 7.7,7.92 13.1,6.7 18.76,-5.98 36.25,-16.09 55.9,-19.04 12.85,-1.5 24.84,4.28 35.73,10.34 2.81,1.78 4.37,4.95 7.16,6.74 2.5,0.46 3.92,-1.85 5.32,-3.48 5.47,-7.18 13.61,-12.76 22.79,-13.49 7.25,-1.34 15.08,-1.15 21.81,2.11 8.09,3.25 16.77,4.8 24.7,8.48 7.95,3.81 16.19,7 23.97,11.18 1.24,0.81 3.2,1.58 3.02,3.4 0.43,4.33 -1.3,9.26 1.52,13.07 1.15,1.87 4.04,2.2 5.41,0.38 3.04,-3.73 1.59,-8.92 3.43,-13.14 6.2,10.13 14.73,19.05 25.31,24.61 7.21,1.64 14.59,2.46 21.94,3.23 8.74,1.94 17.49,3.86 26.05,6.53 3.99,0.98 3.94,-4.35 5.83,-6.6 5.01,-7.3 8.25,-15.57 12.83,-23.11 2.45,-5.97 5.84,-12.16 4.62,-18.85 -0.56,-8.1 0.15,-16.39 -2.13,-24.28 -1.07,-3.14 -2.58,-6.16 -3.04,-9.48 6.3,-0.24 9.86,6.33 15.78,7.42 2.26,-0.21 4.18,-2.46 3.72,-4.75 -0.56,-3.44 -3.74,-5.41 -6.57,-6.89 -1.56,-1.05 -4.12,-1.65 -3.82,-4.02 0.57,-1.52 1.87,-2.58 2.95,-3.73 10.26,-9.29 15.27,-23.04 26.23,-31.68 6.57,-4.85 14.19,-7.97 21.58,-11.32 6.05,-2.09 12.42,-3.69 18.88,-3.22 2.39,-0.18 5.97,0.81 7.24,-1.92 0.66,-3.63 -0.43,-7.33 0.27,-10.95 1.61,-10.24 4.08,-20.4 7.92,-30.05 3.23,-10.29 8.87,-19.75 15.82,-27.96 2.69,-3.28 5.49,-6.47 8.12,-9.8 5.37,-7.93 13.95,-12.84 19.76,-20.4 3.43,-4.61 8.7,-7.32 12.47,-11.57 1.97,-4.28 1.98,-9.26 4.22,-13.46 4.49,-8.21 7.99,-17.01 13.55,-24.6 7.81,-10.35 16.26,-20.33 26.15,-28.76 4.64,-4.12 10.43,-6.83 14.5,-11.59 0.75,-0.97 1.73,-1.66 2.97,-1.81 L 617,375 0,375 0,0 z"
     id="path4"
     style="fill:#fefefe" />
  <path
     d="m 512.06,14.3 c 9.08,-1.59 17.04,-6.7 26.04,-8.64 5.25,-0.49 10.61,-0.49 15.82,0.45 14.32,0.18 28.4,3.63 41.93,8.1 8.44,3.22 15.25,9.74 20,17.31 l 1.15,-0.06 0,5.76 c -1.24,0.15 -2.22,0.84 -2.97,1.81 -4.07,4.76 -9.86,7.47 -14.5,11.59 -9.89,8.43 -18.34,18.41 -26.15,28.76 -5.56,7.59 -9.06,16.39 -13.55,24.6 -2.24,4.2 -2.25,9.18 -4.22,13.46 -3.77,4.25 -9.04,6.96 -12.47,11.57 -5.81,7.56 -14.39,12.47 -19.76,20.4 -2.63,3.33 -5.43,6.52 -8.12,9.8 -6.95,8.21 -12.59,17.67 -15.82,27.96 -3.84,9.65 -6.31,19.81 -7.92,30.05 -0.7,3.62 0.39,7.32 -0.27,10.95 -1.27,2.73 -4.85,1.74 -7.24,1.92 -6.46,-0.47 -12.83,1.13 -18.88,3.22 -7.39,3.35 -15.01,6.47 -21.58,11.32 -10.96,8.64 -15.97,22.39 -26.23,31.68 -1.08,1.15 -2.38,2.21 -2.95,3.73 -0.3,2.37 2.26,2.97 3.82,4.02 2.83,1.48 6.01,3.45 6.57,6.89 0.46,2.29 -1.46,4.54 -3.72,4.75 -5.92,-1.09 -9.48,-7.66 -15.78,-7.42 0.46,3.32 1.97,6.34 3.04,9.48 2.28,7.89 1.57,16.18 2.13,24.28 1.22,6.69 -2.17,12.88 -4.62,18.85 -4.58,7.54 -7.82,15.81 -12.83,23.11 -1.89,2.25 -1.84,7.58 -5.83,6.6 -8.56,-2.67 -17.31,-4.59 -26.05,-6.53 -7.35,-0.77 -14.73,-1.59 -21.94,-3.23 -10.58,-5.56 -19.11,-14.48 -25.31,-24.61 -1.84,4.22 -0.39,9.41 -3.43,13.14 -1.37,1.82 -4.26,1.49 -5.41,-0.38 -2.82,-3.81 -1.09,-8.74 -1.52,-13.07 0.18,-1.82 -1.78,-2.59 -3.02,-3.4 -7.78,-4.18 -16.02,-7.37 -23.97,-11.18 -7.93,-3.68 -16.61,-5.23 -24.7,-8.48 -6.73,-3.26 -14.56,-3.45 -21.81,-2.11 -9.18,0.73 -17.32,6.31 -22.79,13.49 -1.4,1.63 -2.82,3.94 -5.32,3.48 -2.79,-1.79 -4.35,-4.96 -7.16,-6.74 -10.89,-6.06 -22.88,-11.84 -35.73,-10.34 -19.65,2.95 -37.14,13.06 -55.9,19.04 -5.4,1.22 -8.96,-4.21 -13.1,-6.7 -9.73,-5.84 -20.87,-9.21 -32.14,-10.46 -7.23,-1.65 -14.5,0.55 -21.76,0.59 -4.7,1.34 -9.35,2.88 -14.1,4.05 -3.51,0.83 -7.05,3.57 -10.72,1.96 -4.57,-1.99 -5.99,-7.52 -6.13,-12.07 0.06,-5.08 -0.61,-10.37 1.2,-15.24 5.1,-15.93 12.55,-31.3 23.39,-44.14 4.51,-7.11 12.12,-11.16 17.99,-16.96 9.6,-8.43 18.86,-17.34 29.32,-24.73 12.32,-7.55 25.04,-14.46 37.95,-20.98 8.31,-4.22 17.07,-7.4 25.43,-11.49 9.62,-3.39 19.07,-7.21 28.69,-10.59 4.32,-1.88 2.51,-7.9 0.44,-10.93 0.3,-0.46 0.88,-1.4 1.18,-1.87 0.39,0.16 1.18,0.5 1.57,0.66 0.97,2.82 1.78,5.81 3.84,8.07 1.92,2.71 5.72,0.91 8.27,2.54 4.04,1.78 5.53,6.2 6.92,10.03 1.91,2.62 3.74,5.26 4.86,8.34 6.52,8.49 16.03,14.05 22.73,22.38 2.71,3.48 5.81,6.93 9.87,8.79 -0.86,-7.68 -4.04,-15.07 -3.53,-22.91 0.37,-9.73 -1.25,-19.41 -0.6,-29.13 0.36,-4.46 3.41,-8.07 3.96,-12.47 0.97,-0.01 1.93,-0.02 2.9,-0.02 3.39,3.52 5.25,8.13 7.85,12.21 4.55,6.82 7.5,14.71 13.17,20.77 2.69,5.16 6.87,9.32 9.46,14.53 0.82,1.44 2.63,1.51 4.04,1.99 1.63,1.97 3.31,3.9 5.03,5.79 0.52,-0.11 1.57,-0.33 2.1,-0.44 0.14,-4.25 2.07,-8.08 2.95,-12.16 0.32,-6.1 2.14,-11.96 3.44,-17.89 2.57,-6.62 5.79,-13.02 9.57,-19.03 3.11,-5.12 5.6,-10.88 10.33,-14.76 1.92,-1.79 4.96,-1.48 6.99,-0.04 3.45,1.74 4.46,5.73 6.64,8.63 6.66,10.65 10.1,23.42 9.53,35.97 0.42,8.35 -2.05,16.6 -0.82,24.94 1.13,1.82 3.37,1.32 5.17,1.55 3.63,0.07 7.1,2.89 10.75,1.33 4.71,-1.47 6.21,-6.67 8.41,-10.54 2.69,-6.36 6.46,-12.17 9.49,-18.35 1.77,-4.56 3.26,-9.22 5,-13.79 0.65,-5.39 3.48,-10.12 5.3,-15.16 2.5,-6.77 5.28,-13.43 7.83,-20.18 3.4,-7.75 5.67,-15.94 9.43,-23.52 1.91,-4.27 4.16,-8.56 4.51,-13.3 0.26,-2.76 -2.19,-4.62 -3.31,-6.91 0.36,-0.68 1.09,-2.03 1.45,-2.71 2.78,0.17 5.59,2.34 8.33,0.93 5.75,-2.93 10.02,-7.95 15.01,-11.93 4.72,-3.65 8.3,-8.56 13.19,-12 6.5,-4.82 12.81,-9.87 19.18,-14.87 3.75,-3.03 8.11,-5.18 11.98,-8.06 4.68,-3.45 9.99,-5.89 14.79,-9.15 6.64,-4.26 13.84,-7.59 21.47,-9.67 7.19,-2.99 15.14,-3.17 22.28,-6.28 z"
     id="path6"
     style="fill:#020202" />
</svg>
