<?xml version="1.0" encoding="UTF-8" standalone="no"?>
<!-- Generator: Adobe Illustrator 26.0.3, SVG Export Plug-In . SVG Version: 6.00 Build 0)  -->

<svg
   version="1.1"
   id="svg8"
   x="0px"
   y="0px"
   viewBox="0 0 683.31201 509.42173"
   xml:space="preserve"
   width="683.31201"
   height="509.42172"
   xmlns="http://www.w3.org/2000/svg"
   xmlns:svg="http://www.w3.org/2000/svg"><defs
   id="defs9" />
<style
   type="text/css"
   id="style2">
	.st0{stroke:#000000;stroke-width:0.75;stroke-miterlimit:11.3386;}
</style>
<g
   id="layer1"
   transform="translate(-0.06296231,0.03817939)">
	<path
   id="path847"
   class="st0"
   d="m 360.4,13 c -2.1,1.2 -2.9,2 -6.8,2.8 -3.9,0.9 -7.1,2 -9.3,4.1 -2.2,2.1 -6,8.2 -6.8,9.4 -0.8,1.2 -0.9,4 -1,5.2 -0.2,1.2 -0.8,2.7 -1.3,4 -0.6,1.3 -1,2.2 -1.4,4.6 -0.4,2.5 -1.3,3.2 -1,6.1 0.3,2.8 0.7,5.1 0.8,6.2 0.1,1.1 2.6,12.1 3.9,14.6 1.3,2.5 4.6,6.6 5.1,7.9 0.5,1.3 1.2,3.3 1.2,5.6 0,2.3 1.6,8.4 2,9.9 0.4,1.5 4.2,16.1 3.9,18.6 -0.3,2.5 -0.3,5.8 -0.3,11.8 0,6 -0.4,14.6 -0.4,16.5 0,1.9 -1,15.2 -1,15.2 0,0 -6.4,18.6 -6.8,19.5 -0.4,0.9 -9.8,22.5 -10.8,24.2 -0.9,1.7 -5.1,12.7 -5.7,13.6 -0.6,0.9 -9.7,21.6 -9.7,21.6 0,0 -26.5,5.1 -32,5.9 -5.5,0.8 -40.9,8.1 -44.1,8.5 -3.2,0.4 -23.1,5.1 -31.6,6.4 -8.5,1.3 -36.6,7.8 -41.9,9.7 -5.3,1.9 -47.9,21.4 -50.8,22.7 -2.8,1.3 -41.1,23.5 -41.1,23.5 l -4.2,5.1 c 0,0 -3.6,-0.8 -6.8,-1.7 -3.2,-0.9 -3.6,-2.1 -8.3,-1.7 -4.7,0.4 -9.9,0.7 -11.6,0.1 -1.7,-0.6 -6.1,-2.4 -6.9,-2.2 -0.9,0.2 -1.6,-0.4 -1.9,0.8 -0.3,1.1 -1.4,0.8 -0.1,2.8 1.3,2.1 1.4,1.4 2.6,2.8 1.2,1.4 -2,2 -3.6,2.5 -1.6,0.5 -3.3,1 -5.5,0.9 -2.2,-0.1 -4.9,-0.1 -5,0.5 -0.1,0.6 1,2.8 1,2.8 0,0 2.2,2.7 1.2,3.3 -0.9,0.6 -2.1,0.9 -4.5,0.9 -2.4,0 -9,0.3 -10.9,0 -1.9,-0.3 -4.2,-1.1 -5.6,0.4 -1.5,1.5 -4,2.7 -2.5,4.7 1.5,2 3.5,2.9 5.5,3.9 2,0.9 31,13 31,13 l 7.4,1.7 c 0,0 -2.7,15.3 -5.5,19.3 -2.8,4 -3.4,8.9 -4.5,14.4 -1.1,5.5 -1.3,14.4 0.4,15.9 1.7,1.5 4.2,2.8 8.3,4.9 4.2,2.1 5.5,1.7 8.9,4.2 3.4,2.5 4.2,2.7 10.2,3 6.1,0.4 7.8,0.4 9.7,2.3 1.9,1.9 4.5,4.9 8.7,3.6 4.2,-1.3 6.8,-2.3 11,-1.9 4.2,0.4 4.5,2.3 6.1,0.4 1.5,-1.9 3.8,-3.8 2.8,-7 -0.9,-3.2 -1.1,-2.3 -3,-8.7 -1.9,-6.4 -2.5,-7.4 -1.9,-11.4 0.6,-4 0.6,-6.8 1.1,-10.2 0.6,-3.4 0.9,-5.9 0.9,-8 0,-2.1 0.6,-5.5 1.9,-5.3 1.3,0.2 7.8,0 10.2,0.9 2.5,0.9 1.5,0.8 11.9,4 10.4,3.2 26.3,5.3 28.6,6.1 2.3,0.8 66.9,10.2 66.9,10.2 0,0 1.1,-0.4 13.8,1.5 12.7,1.9 27.8,2.8 32.6,4.7 4.7,1.9 11.6,7.2 15,9.7 3.4,2.5 6.3,3 8.7,4.4 2.5,1.3 6.1,5.9 6.1,5.9 0,0 -4.4,15.5 -6.1,18 -1.7,2.5 -8.1,13.1 -8.1,13.1 0,0 -11.4,3.8 -14.4,4.9 -3,1.1 -21.3,9.9 -23.5,11.5 -2.1,1.6 -5.9,3.8 -7.2,6.7 -1.3,2.9 -1.9,7.8 -1.9,7.8 0,0 -6.2,4.6 -8.3,5.9 -2.1,1.3 -2.4,2.1 -2.4,4.8 0,2.7 -4,7 -4.8,9.6 -0.8,2.7 -2.4,6.7 -2.7,8.3 -0.3,1.6 9.6,4.8 12.3,3.5 2.7,-1.3 66.7,-20.4 66.7,-20.4 0,0 18.5,-12.3 24.6,-15.8 6.2,-3.5 15.5,-7.8 20.9,-11 5.4,-3.2 11.2,-5.9 12.1,-7.2 0.9,-1.3 2.1,-2.9 4.6,-6.2 2.4,-3.2 5.6,-6.2 6.2,-9.9 0.5,-3.8 1.3,-5.4 2.1,-8.6 0.8,-3.2 1.9,-10.7 1.9,-10.7 0,0 23.3,3.7 36.2,1.6 12.9,-2.1 30.3,-5.4 35.1,-7.5 4.8,-2.1 15.3,-7 17.4,-8.3 2.1,-1.3 4.6,-3.7 8.6,-7.2 4,-3.5 5.4,-5.6 8.8,-8.8 3.5,-3.2 5.6,-5.9 7.8,-7.8 2.1,-1.9 7.8,-7 7.8,-7 0,0 -2.1,27.3 -1.6,31.9 0.5,4.6 2.1,13.4 4.6,16.6 2.4,3.2 7.5,6.7 10.2,9.4 2.7,2.7 19.7,12.3 25.9,13.8 6.3,1.5 32.8,8.1 39,9.3 6.3,1.1 14.4,3 20.8,3 6.4,0 15.7,0.4 20.8,-0.9 5.1,-1.3 18.6,-0.4 18.6,-0.4 l 48.1,-4 c 0,0 4.4,0.2 5.9,-1.3 1.5,-1.5 2.1,-2.5 2.7,-4.7 0.6,-2.3 0.6,-3.4 0.6,-3.4 0,0 -4.9,-1.5 -7,-1.7 -2.1,-0.2 -5.5,-0.8 -12.5,-1.3 -7,-0.6 -18.2,-6.1 -18.9,-6.3 -0.8,-0.2 -2.7,-0.6 -3.6,-0.9 -0.9,-0.4 -22.5,-8.5 -22.5,-8.5 0,0 -1.1,-4.2 -2.1,-4.9 -0.9,-0.8 -0.8,-1.9 -6.4,-2.8 -5.7,-0.9 -4.5,-4 -9.8,-4.5 -5.3,-0.6 -4.9,0.4 -12.3,0.9 -7.4,0.6 -12.9,0.8 -15.9,0.6 -3,-0.2 -9.5,-3.2 -14.8,-3.6 -5.3,-0.4 -8.9,-1.1 -13.6,-1.9 -4.7,-0.8 -17.2,-5.4 -18.5,-7 -1.3,-1.6 -1.9,-2.5 -2.3,-3.2 -0.4,-0.7 -1.1,-0.4 -2.1,-2.5 -1.1,-2.1 -2.5,-3.1 -2.5,-4.8 0,-1.7 0.7,-20.2 0.4,-22.4 -0.3,-2.1 -0.4,-5.6 -0.4,-7.5 0,-1.9 6.8,-35.9 7.5,-37.8 0.8,-1.9 6.4,-24.6 6.4,-24.6 0,0 2.3,-10.4 1.9,-13.3 -0.4,-2.8 -0.4,-3.2 -0.6,-6.6 -0.2,-3.4 -0.8,-5.1 -0.8,-7.6 0,-2.5 1.9,-11.9 1.9,-13.3 0,-1.3 -0.2,-11.2 -0.6,-12.1 -0.4,-0.9 -1.3,-4.9 -1.3,-4.9 l -1.3,-13.1 c 0,0 -2.7,-11 -4.4,-13.4 -1.7,-2.4 -4.4,-5.2 -5.8,-7.6 -1.3,-2.4 -3.8,-9.2 -4.6,-11 -0.8,-1.7 -0.9,-2.5 -2.5,-5.2 -1.6,-2.7 -2.8,-5.5 -2.8,-5.5 0,0 -8.8,-13.8 -9.7,-16.1 -0.9,-2.3 -4.1,-9.2 -4.8,-10.5 -0.8,-1.3 -0.9,-2.2 -0.9,-2.2 0,0 -8.5,-19.9 -9.2,-23.1 -0.7,-3.2 -3.5,-11 -4.4,-17.8 -0.9,-6.8 -1.6,-11.8 -2.9,-18.8 -1.3,-7 -1.7,-9.4 -3.1,-14.5 -1.4,-5.1 -1.7,-8.3 -2,-11 -0.3,-2.7 -1.1,-8.6 -1.5,-10.3 -0.4,-1.7 1.6,-2 1.6,-2 0,0 0.7,0.5 1.1,-1.1 0.4,-1.6 0.5,-1.5 0.5,-3.1 0,-1.6 -0.4,-2.7 -1.3,-3.6 -0.9,-0.9 0.1,-0.7 -3.2,-4.2 -3.3,-3.5 -2.8,-3.8 -4,-6 -1.2,-2.3 -3.5,-5.8 -4,-6.3 -0.5,-0.5 -3.1,-7.2 -5.6,-9.5 -2.5,-2.3 -20.5,-12.7 -23,-14.2 -2.5,-1.5 -4.8,-2.8 -8.7,-4.2 -3.9,-1.3 -16.2,-4.8 -20,-5.4 -3.8,-0.5 -2.7,-0.9 -7.8,-0.5 -5.1,0.4 -6.2,0.1 -10.3,0.9 -4.1,0.8 -17.9,4.8 -19,5 -1.1,0.1 -2.7,1.1 -4,2.5 -1.3,1.5 -4.7,4.7 -4.7,4.7 z" />
</g>
</svg>
